<?xml version="1.0" encoding="UTF-8"?>
<!DOCTYPE svg PUBLIC "-//W3C//DTD SVG 1.1//EN" "http://www.w3.org/Graphics/SVG/1.1/DTD/svg11.dtd">
<svg xmlns="http://www.w3.org/2000/svg" version="1.1" width="800px" height="800px" style="shape-rendering:geometricPrecision; text-rendering:geometricPrecision; image-rendering:optimizeQuality; fill-rule:evenodd; clip-rule:evenodd" xmlns:xlink="http://www.w3.org/1999/xlink">
<g><path style="opacity:0.879" fill="#4c565f" d="M 184.5,342.5 C 183.262,341.588 181.928,341.421 180.5,342C 179.61,344.391 177.943,345.891 175.5,346.5C 174.432,345.566 173.099,345.232 171.5,345.5C 173.823,340.855 176.156,336.188 178.5,331.5C 175.021,329.878 172.021,327.045 169.5,323C 165.236,323.016 161.236,322.183 157.5,320.5C 156.548,318.955 156.215,317.288 156.5,315.5C 157.122,314.373 157.955,313.373 159,312.5C 166.298,313.609 172.798,316.442 178.5,321C 181.051,325.271 183.218,329.771 185,334.5C 185.43,337.192 185.263,339.859 184.5,342.5 Z"/></g>
<g><path style="opacity:0.93" fill="#536674" d="M 78.5,318.5 C 77.3406,317.544 76.1739,316.544 75,315.5C 72.8154,317.673 70.3154,319.507 67.5,321C 64.1508,321.388 60.8175,321.221 57.5,320.5C 56.8924,317.366 55.2258,316.699 52.5,318.5C 52.9528,317.542 53.6195,316.708 54.5,316C 59.2577,315.116 63.9243,313.95 68.5,312.5C 71.2263,312.682 73.8929,313.182 76.5,314C 78.0368,315.11 78.7035,316.61 78.5,318.5 Z"/></g>
<g><path style="opacity:0.989" fill="#162533" d="M 156.5,315.5 C 156.215,317.288 156.548,318.955 157.5,320.5C 161.236,322.183 165.236,323.016 169.5,323C 172.021,327.045 175.021,329.878 178.5,331.5C 176.156,336.188 173.823,340.855 171.5,345.5C 167.946,345.849 164.613,345.849 161.5,345.5C 163.498,343.4 165.665,341.4 168,339.5C 169.587,340.727 170.921,340.394 172,338.5C 172.991,336.553 173.325,334.553 173,332.5C 169.62,325.966 164.454,323.966 157.5,326.5C 155.519,326.563 153.852,325.896 152.5,324.5C 151.265,325.34 150.265,326.34 149.5,327.5C 149.335,324.482 149.502,321.482 150,318.5C 151.734,316.549 153.901,315.549 156.5,315.5 Z"/></g>
<g><path style="opacity:1" fill="#184d69" d="M 78.5,318.5 C 79.1667,320.833 79.8333,323.167 80.5,325.5C 78.5107,324.519 76.5107,323.519 74.5,322.5C 72.2147,323.614 70.048,324.947 68,326.5C 64.5198,324.605 61.0198,322.938 57.5,321.5C 57.5,321.167 57.5,320.833 57.5,320.5C 60.8175,321.221 64.1508,321.388 67.5,321C 70.3154,319.507 72.8154,317.673 75,315.5C 76.1739,316.544 77.3406,317.544 78.5,318.5 Z"/></g>
<g><path style="opacity:0.989" fill="#06050b" d="M 161.5,345.5 C 160.833,345.167 160.167,344.833 159.5,344.5C 158.833,344.5 158.167,344.5 157.5,344.5C 157.719,343.325 157.386,342.325 156.5,341.5C 153.284,339.256 150.617,336.59 148.5,333.5C 148.325,331.379 148.659,329.379 149.5,327.5C 150.265,326.34 151.265,325.34 152.5,324.5C 153.852,325.896 155.519,326.563 157.5,326.5C 164.454,323.966 169.62,325.966 173,332.5C 173.325,334.553 172.991,336.553 172,338.5C 170.921,340.394 169.587,340.727 168,339.5C 165.665,341.4 163.498,343.4 161.5,345.5 Z"/></g>
<g><path style="opacity:1" fill="#07060e" d="M 82.5,330.5 C 83.1667,331.833 84.1667,332.833 85.5,333.5C 85.5,333.833 85.5,334.167 85.5,334.5C 85.1667,334.5 84.8333,334.5 84.5,334.5C 82.0304,336.087 79.3637,337.587 76.5,339C 75.1387,340.584 74.472,342.418 74.5,344.5C 74.5,345.167 74.5,345.833 74.5,346.5C 73.8333,346.5 73.1667,346.5 72.5,346.5C 61.1714,347.525 57.5047,342.858 61.5,332.5C 63.2624,332.643 64.9291,332.309 66.5,331.5C 70.6609,335.296 73.9943,334.463 76.5,329C 78.6889,328.678 80.6889,329.178 82.5,330.5 Z"/></g>
<g><path style="opacity:0.937" fill="#6a7076" d="M 51.5,319.5 C 50.6513,322.035 49.6513,324.535 48.5,327C 48.6448,327.772 48.9781,328.439 49.5,329C 48.7917,333.643 47.6251,338.143 46,342.5C 44.6667,343.167 43.6667,344.167 43,345.5C 42.6012,345.272 42.4346,344.938 42.5,344.5C 42.9737,341.079 42.9737,337.745 42.5,334.5C 44.4644,330.044 46.6311,325.711 49,321.5C 49.7083,320.619 50.5416,319.953 51.5,319.5 Z"/></g>
<g><path style="opacity:0.849" fill="#bababf" d="M 97.5,329.5 C 95.2854,332.724 92.9521,335.724 90.5,338.5C 89.8333,338.5 89.1667,338.5 88.5,338.5C 88.1667,338.5 87.8333,338.5 87.5,338.5C 87.2671,336.938 86.6005,335.605 85.5,334.5C 85.5,334.167 85.5,333.833 85.5,333.5C 89.0983,331.26 93.0983,329.926 97.5,329.5 Z"/></g>
<g><path style="opacity:0.901" fill="#ebd4cf" d="M 128.5,326.5 C 135.396,327.519 141.562,330.186 147,334.5C 147.383,333.944 147.883,333.611 148.5,333.5C 148.5,334.833 148.5,336.167 148.5,337.5C 147.167,338.5 145.833,339.5 144.5,340.5C 140.919,338.717 137.252,336.717 133.5,334.5C 132.319,336.135 132.319,337.802 133.5,339.5C 131.979,339.88 130.313,340.046 128.5,340C 127.127,344.403 128.793,346.569 133.5,346.5C 132.054,347.613 130.387,347.78 128.5,347C 126.974,345.113 124.974,344.113 122.5,344C 126.285,341.06 127.952,337.227 127.5,332.5C 128.552,332.649 129.552,332.483 130.5,332C 129.139,330.416 128.472,328.582 128.5,326.5 Z"/></g>
<g><path style="opacity:0.971" fill="#0e2233" d="M 57.5,321.5 C 61.0198,322.938 64.5198,324.605 68,326.5C 70.048,324.947 72.2147,323.614 74.5,322.5C 76.5107,323.519 78.5107,324.519 80.5,325.5C 81.4408,327.05 82.1075,328.716 82.5,330.5C 80.6889,329.178 78.6889,328.678 76.5,329C 73.9943,334.463 70.6609,335.296 66.5,331.5C 64.9291,332.309 63.2624,332.643 61.5,332.5C 57.5047,342.858 61.1714,347.525 72.5,346.5C 72.6716,347.492 72.3382,348.158 71.5,348.5C 70.1667,348.5 68.8333,348.5 67.5,348.5C 64.4116,349.068 61.4116,349.068 58.5,348.5C 55.5205,342.879 52.8539,337.213 50.5,331.5C 50.8878,326.7 53.2212,323.367 57.5,321.5 Z"/></g>
<g><path style="opacity:0.998" fill="#f1b4b3" d="M 144.5,340.5 C 141.184,340.373 138.184,339.373 135.5,337.5C 135.167,337.833 134.833,338.167 134.5,338.5C 135.193,339.518 135.859,340.518 136.5,341.5C 133.916,342.048 132.916,343.715 133.5,346.5C 128.793,346.569 127.127,344.403 128.5,340C 130.313,340.046 131.979,339.88 133.5,339.5C 132.319,337.802 132.319,336.135 133.5,334.5C 137.252,336.717 140.919,338.717 144.5,340.5 Z"/></g>
<g><path style="opacity:0.999" fill="#c69b9d" d="M 84.5,334.5 C 84.8333,334.5 85.1667,334.5 85.5,334.5C 86.6005,335.605 87.2671,336.938 87.5,338.5C 86.3373,340.982 84.3373,342.316 81.5,342.5C 81.762,343.978 81.4287,345.311 80.5,346.5C 78.5841,345.752 76.5841,345.752 74.5,346.5C 74.5,345.833 74.5,345.167 74.5,344.5C 77.4364,340.713 80.7698,337.379 84.5,334.5 Z"/></g>
<g><path style="opacity:0.926" fill="#45505a" d="M 57.5,320.5 C 57.5,320.833 57.5,321.167 57.5,321.5C 53.2212,323.367 50.8878,326.7 50.5,331.5C 50.7377,336.858 50.9043,342.191 51,347.5C 49.4933,348.505 48.3267,349.838 47.5,351.5C 45.7751,349.908 44.7751,350.242 44.5,352.5C 43.7109,352.217 43.0442,351.717 42.5,351C 42.161,348.83 42.161,346.664 42.5,344.5C 42.4346,344.938 42.6012,345.272 43,345.5C 43.6667,344.167 44.6667,343.167 46,342.5C 47.6251,338.143 48.7917,333.643 49.5,329C 48.9781,328.439 48.6448,327.772 48.5,327C 49.6513,324.535 50.6513,322.035 51.5,319.5C 51.5,318.833 51.8333,318.5 52.5,318.5C 55.2258,316.699 56.8924,317.366 57.5,320.5 Z"/></g>
<g><path style="opacity:0.956" fill="#000000" d="M 475.5,337.5 C 480.575,337.593 485.575,338.259 490.5,339.5C 490.833,340.167 491.167,340.833 491.5,341.5C 490.342,345.11 489.842,348.777 490,352.5C 491.734,353.249 493.567,353.749 495.5,354C 496.659,355.827 497.992,357.493 499.5,359C 499.167,359.333 498.833,359.667 498.5,360C 499.944,361.126 500.61,362.626 500.5,364.5C 499.179,367.179 499.179,369.846 500.5,372.5C 495.5,372.5 490.5,372.5 485.5,372.5C 485.636,375.551 485.302,378.551 484.5,381.5C 484.833,382.167 485.167,382.833 485.5,383.5C 494.237,385.453 498.57,390.953 498.5,400C 497.372,414.903 495.038,429.57 491.5,444C 493.312,447.922 493.979,452.089 493.5,456.5C 479.308,456.791 465.141,456.458 451,455.5C 449.545,457.642 447.045,459.309 443.5,460.5C 438.707,459.86 433.707,459.527 428.5,459.5C 426.102,444.551 423.936,429.551 422,414.5C 419.187,429.749 414.521,444.416 408,458.5C 407,459.5 406,460.5 405,461.5C 404.676,459.431 403.842,459.098 402.5,460.5C 400.453,458.985 398.119,458.151 395.5,458C 394,455.833 392.167,454 390,452.5C 389.624,448.082 390.124,443.749 391.5,439.5C 385.966,435.132 381.299,429.965 377.5,424C 383.305,416.362 389.638,409.196 396.5,402.5C 397.833,399.833 397.833,397.167 396.5,394.5C 393.723,396.753 390.723,397.419 387.5,396.5C 385.168,391.834 382.334,387.501 379,383.5C 378.48,381.711 378.813,380.044 380,378.5C 383.042,375.289 386.209,372.289 389.5,369.5C 384.851,363.539 381.851,356.872 380.5,349.5C 382.467,349.261 384.301,349.594 386,350.5C 385.737,349.049 385.904,347.716 386.5,346.5C 390.165,343.665 394.165,341.332 398.5,339.5C 402.513,343.515 406.179,347.848 409.5,352.5C 411.58,350.411 413.913,348.744 416.5,347.5C 418.598,349.489 420.598,351.655 422.5,354C 425.192,354.43 427.859,354.263 430.5,353.5C 430.335,350.482 430.502,347.482 431,344.5C 437.509,340.365 444.676,338.365 452.5,338.5C 453.314,343.119 453.647,347.786 453.5,352.5C 457.182,352.665 460.848,352.499 464.5,352C 465.116,348.137 465.95,344.304 467,340.5C 470.025,339.806 472.858,338.806 475.5,337.5 Z M 421.5,369.5 C 424.919,371.007 428.585,372.007 432.5,372.5C 433.167,375.167 433.833,377.833 434.5,380.5C 440.741,382.007 447.075,382.674 453.5,382.5C 453.335,379.15 453.502,375.817 454,372.5C 456.719,371.556 459.552,371.223 462.5,371.5C 463.162,375.466 463.495,379.466 463.5,383.5C 456.803,383.286 450.136,383.619 443.5,384.5C 441.754,384.029 440.087,383.362 438.5,382.5C 433.641,383.016 428.974,384.016 424.5,385.5C 424.5,386.5 424.5,387.5 424.5,388.5C 423.5,388.5 422.5,388.5 421.5,388.5C 421.038,383.392 420.038,378.392 418.5,373.5C 419.524,372.148 420.524,370.815 421.5,369.5 Z M 443.5,401.5 C 446.518,401.335 449.518,401.502 452.5,402C 450.656,404.804 449.989,407.97 450.5,411.5C 448.396,411.799 446.396,411.466 444.5,410.5C 443.593,407.579 443.26,404.579 443.5,401.5 Z M 469.5,401.5 C 473.048,401.095 476.381,401.595 479.5,403C 478.549,406.057 478.216,409.223 478.5,412.5C 475.833,412.5 473.167,412.5 470.5,412.5C 470.448,408.802 470.114,405.135 469.5,401.5 Z M 472.5,426.5 C 473.5,426.5 474.5,426.5 475.5,426.5C 474.446,431.107 473.779,435.773 473.5,440.5C 472.167,440.5 470.833,440.5 469.5,440.5C 469.716,435.54 470.716,430.873 472.5,426.5 Z M 445.5,427.5 C 447.5,427.5 449.5,427.5 451.5,427.5C 451.5,432.167 451.5,436.833 451.5,441.5C 449.833,441.5 448.167,441.5 446.5,441.5C 446.717,436.77 446.383,432.103 445.5,427.5 Z"/></g>
<g><path style="opacity:1" fill="#a17665" d="M 148.5,333.5 C 150.617,336.59 153.284,339.256 156.5,341.5C 157.386,342.325 157.719,343.325 157.5,344.5C 153.922,342.924 150.922,340.591 148.5,337.5C 148.5,336.167 148.5,334.833 148.5,333.5 Z"/></g>
<g><path style="opacity:0.944" fill="#000000" d="M 261.5,338.5 C 264.547,337.855 266.713,338.855 268,341.5C 268.333,341.167 268.667,340.833 269,340.5C 271.655,342.99 274.155,345.656 276.5,348.5C 275.408,351.094 273.741,353.261 271.5,355C 273.568,355.687 275.568,355.52 277.5,354.5C 280.244,349.421 284.244,345.754 289.5,343.5C 295.466,347.301 300.299,352.301 304,358.5C 305.172,351.635 307.339,345.135 310.5,339C 311.5,338.833 312.5,338.667 313.5,338.5C 317.351,339.865 321.351,340.865 325.5,341.5C 326.48,344.086 326.813,346.753 326.5,349.5C 332.314,348.173 337.981,346.34 343.5,344C 345.5,343.333 347.5,343.333 349.5,344C 352.538,347.074 354.538,350.74 355.5,355C 355.241,356.261 354.574,357.261 353.5,358C 344.467,361.474 335.134,363.807 325.5,365C 329.748,366.064 334.081,366.564 338.5,366.5C 345.171,366.166 351.837,365.833 358.5,365.5C 359.483,370.87 359.483,376.037 358.5,381C 349.376,383.662 340.043,384.829 330.5,384.5C 330.579,385.93 330.246,387.264 329.5,388.5C 330.667,388.833 331.833,389.167 333,389.5C 339.47,388.294 345.97,387.794 352.5,388C 355.574,391.572 357.24,395.739 357.5,400.5C 356.286,402.069 354.619,402.902 352.5,403C 346.493,403.424 340.493,403.924 334.5,404.5C 332.44,404.428 330.44,404.095 328.5,403.5C 327.269,404.651 327.269,405.817 328.5,407C 338.839,407.412 349.173,407.245 359.5,406.5C 359.565,410.618 360.231,414.618 361.5,418.5C 361.41,420.228 361.077,421.894 360.5,423.5C 356.196,426.213 351.529,428.047 346.5,429C 351.667,432.833 356.167,437.333 360,442.5C 360.667,444.5 360.667,446.5 360,448.5C 357.46,450.705 355.293,453.205 353.5,456C 351.5,457.333 349.5,458.667 347.5,460C 346.056,460.781 344.723,460.614 343.5,459.5C 338.54,452.042 332.707,445.375 326,439.5C 326.428,441.746 326.928,444.079 327.5,446.5C 324.062,453.046 318.728,456.879 311.5,458C 307.473,450.784 303.307,443.617 299,436.5C 297.991,434.975 297.491,433.308 297.5,431.5C 295.326,431.08 293.326,431.08 291.5,431.5C 295.66,438.818 298.993,446.485 301.5,454.5C 295.916,456.532 290.25,458.032 284.5,459C 280.621,452.739 276.621,446.572 272.5,440.5C 268.787,447.43 264.454,453.93 259.5,460C 251.327,459.413 244.661,455.913 239.5,449.5C 243.082,443.909 247.082,438.576 251.5,433.5C 248.654,431.077 245.82,428.743 243,426.5C 243.333,417.655 244.166,408.821 245.5,400C 244.484,393.604 243.151,387.271 241.5,381C 241.645,380.228 241.978,379.561 242.5,379C 246.159,377.39 249.826,375.723 253.5,374C 240.314,372.061 236.814,365.228 243,353.5C 248.776,347.878 254.942,342.878 261.5,338.5 Z M 304.5,370.5 C 306.884,373.391 309.551,376.224 312.5,379C 310.01,379.495 308.51,380.995 308,383.5C 306.528,387.723 305.528,392.057 305,396.5C 304.385,391.094 303.385,385.761 302,380.5C 301.07,378.448 299.57,376.948 297.5,376C 300.617,375.037 302.951,373.204 304.5,370.5 Z M 281.5,371.5 C 284.187,371.336 286.854,371.503 289.5,372C 289.957,372.414 290.291,372.914 290.5,373.5C 282.666,374.246 274.833,374.912 267,375.5C 266.167,375.167 265.333,374.833 264.5,374.5C 270.293,373.421 275.959,372.421 281.5,371.5 Z M 280.5,387.5 C 282.167,387.5 283.833,387.5 285.5,387.5C 285.663,389.857 285.497,392.19 285,394.5C 279.803,392.58 274.303,391.913 268.5,392.5C 268.5,391.5 268.5,390.5 268.5,389.5C 272.664,389.044 276.664,388.378 280.5,387.5 Z M 280.5,403.5 C 281.833,403.5 283.167,403.5 284.5,403.5C 284.714,405.144 284.38,406.644 283.5,408C 278.533,407.839 273.533,407.672 268.5,407.5C 268.5,406.5 268.5,405.5 268.5,404.5C 272.702,404.817 276.702,404.483 280.5,403.5 Z M 313.5,424.5 C 309.144,424.927 305.311,426.594 302,429.5C 302.527,422.814 303.527,416.148 305,409.5C 306.294,415.428 309.128,420.428 313.5,424.5 Z M 279.5,420.5 C 280.5,420.5 281.5,420.5 282.5,420.5C 282.38,422.199 282.046,423.865 281.5,425.5C 281.529,427.029 282.196,428.196 283.5,429C 279.396,431.106 275.896,433.939 273,437.5C 270.473,434.061 267.473,431.061 264,428.5C 263.878,426.831 264.212,425.165 265,423.5C 269.716,421.898 274.55,420.898 279.5,420.5 Z M 313.5,424.5 C 318.953,427.04 324.619,428.873 330.5,430C 328.112,432.629 326.112,435.462 324.5,438.5C 320.864,433.858 317.197,429.191 313.5,424.5 Z"/></g>
<g><path style="opacity:0.949" fill="#000000" d="M 590.5,338.5 C 596.583,338.522 602.583,339.189 608.5,340.5C 608.777,343.448 608.444,346.281 607.5,349C 615.962,355.128 623.462,362.294 630,370.5C 633.244,374.744 636.078,379.244 638.5,384C 635.277,390.783 630.277,395.783 623.5,399C 620.968,399.167 619.134,398 618,395.5C 618.297,398.842 619.964,401.509 623,403.5C 625.385,407.457 624.552,410.624 620.5,413C 611.454,417.468 601.954,420.302 592,421.5C 591.333,426.167 591.333,430.833 592,435.5C 596.661,437.35 601.494,437.85 606.5,437C 613.473,435.065 620.473,433.231 627.5,431.5C 628.5,431.833 629.5,432.167 630.5,432.5C 631.922,435.426 633.922,437.926 636.5,440C 635.729,442.44 635.562,444.94 636,447.5C 628.7,453.829 620.2,457.663 610.5,459C 603.5,459.667 596.5,459.667 589.5,459C 572.743,454.527 565.409,443.527 567.5,426C 567.974,418.15 568.64,410.316 569.5,402.5C 568.03,398.834 565.863,395.501 563,392.5C 562.667,396.167 562.333,399.833 562,403.5C 555.142,418.08 553.975,433.08 558.5,448.5C 558.392,449.442 558.059,450.275 557.5,451C 555.866,451.494 554.199,451.66 552.5,451.5C 552.719,452.675 552.386,453.675 551.5,454.5C 547.464,457.433 542.964,459.433 538,460.5C 534.55,458.034 532.217,454.701 531,450.5C 527.165,435.368 527.998,420.535 533.5,406C 528.914,405.803 524.414,405.303 520,404.5C 518.89,402.603 518.724,400.77 519.5,399C 517.692,397.72 516.359,396.053 515.5,394C 515.638,391.805 515.638,389.638 515.5,387.5C 515.968,385.866 516.968,384.7 518.5,384C 528.982,381.023 539.649,380.023 550.5,381C 552.167,381.833 553.833,382.667 555.5,383.5C 562.854,375.314 570.02,366.981 577,358.5C 579.458,353.005 581.458,347.338 583,341.5C 584.733,339.398 586.733,339.065 589,340.5C 589.717,339.956 590.217,339.289 590.5,338.5 Z M 616.5,393.5 C 614.164,391.609 611.498,391.109 608.5,392C 604.137,394.684 599.47,396.518 594.5,397.5C 594.813,394.753 594.48,392.086 593.5,389.5C 592.914,389.709 592.414,390.043 592,390.5C 589.446,388.685 586.946,387.518 584.5,387C 590.382,382.62 595.382,377.453 599.5,371.5C 606.141,378.132 611.807,385.466 616.5,393.5 Z M 526.5,400.5 C 528.966,399.366 531.633,399.199 534.5,400C 532.236,400.236 530.069,400.736 528,401.5C 527.617,400.944 527.117,400.611 526.5,400.5 Z"/></g>
<g><path style="opacity:0.954" fill="#000000" d="M 723.5,338.5 C 725.467,338.261 727.301,338.594 729,339.5C 729.748,344.481 730.248,349.481 730.5,354.5C 744.171,354.333 757.837,354.5 771.5,355C 772.672,355.419 773.672,356.085 774.5,357C 773.84,362.599 772.506,368.265 770.5,374C 761.521,374.94 752.521,375.607 743.5,376C 747.716,377.204 752.049,377.87 756.5,378C 757.43,379.194 758.097,380.527 758.5,382C 756.099,393.221 751.765,403.554 745.5,413C 753.5,418.667 761.5,424.333 769.5,430C 773.824,433.155 776.157,437.322 776.5,442.5C 774.712,442.215 773.045,442.548 771.5,443.5C 772.484,445.598 772.151,447.598 770.5,449.5C 768.868,452.966 766.368,455.633 763,457.5C 762.667,458.5 762.333,459.5 762,460.5C 758.526,459.68 755.359,458.18 752.5,456C 743.093,448.216 733.259,441.05 723,434.5C 703.987,446.723 683.487,455.223 661.5,460C 659.166,453.313 657.666,446.479 657,439.5C 670.879,432.81 684.713,425.977 698.5,419C 690.819,414.158 682.819,409.825 674.5,406C 671.872,404.374 669.539,402.374 667.5,400C 668.75,397.619 670.417,395.619 672.5,394C 670.009,393.374 670.009,392.541 672.5,391.5C 671.674,390.549 671.508,389.549 672,388.5C 674.868,386.965 677.035,384.799 678.5,382C 685.165,381.581 691.498,382.915 697.5,386C 705.657,389.912 713.657,394.078 721.5,398.5C 722.478,398.023 723.311,397.357 724,396.5C 727.372,389.588 730.872,382.755 734.5,376C 713.578,376.756 692.578,377.09 671.5,377C 667.708,377.222 664.708,375.889 662.5,373C 662.833,372.667 663.167,372.333 663.5,372C 662.207,371.51 660.873,371.343 659.5,371.5C 658.858,368.865 658.191,366.198 657.5,363.5C 658.405,360.569 658.739,357.736 658.5,355C 672.5,354.667 686.5,354.333 700.5,354C 698.933,350.108 699.267,346.442 701.5,343C 708.841,340.825 716.174,339.325 723.5,338.5 Z M 679.5,402.5 C 681.666,401.371 683.666,401.871 685.5,404C 683.494,403.85 681.494,403.35 679.5,402.5 Z"/></g>
<g><path style="opacity:0.998" fill="#ea9f7b" d="M 144.5,340.5 C 145.833,339.5 147.167,338.5 148.5,337.5C 150.922,340.591 153.922,342.924 157.5,344.5C 158.167,344.5 158.833,344.5 159.5,344.5C 159.5,345.833 159.5,347.167 159.5,348.5C 158.075,346.969 157.409,347.302 157.5,349.5C 155.143,349.337 152.81,349.503 150.5,350C 149.619,350.708 148.953,351.542 148.5,352.5C 144.566,350.88 141.233,348.546 138.5,345.5C 137.655,344.329 136.989,342.995 136.5,341.5C 135.859,340.518 135.193,339.518 134.5,338.5C 134.833,338.167 135.167,337.833 135.5,337.5C 138.184,339.373 141.184,340.373 144.5,340.5 Z"/></g>
<g><path style="opacity:0.999" fill="#1c3f54" d="M 50.5,331.5 C 52.8539,337.213 55.5205,342.879 58.5,348.5C 61.4116,349.068 64.4116,349.068 67.5,348.5C 64.1795,350.667 61.6795,353.667 60,357.5C 59.6174,356.944 59.1174,356.611 58.5,356.5C 54.8658,356.31 51.1991,355.977 47.5,355.5C 45.5,355.5 44.5,354.5 44.5,352.5C 44.7751,350.242 45.7751,349.908 47.5,351.5C 48.3267,349.838 49.4933,348.505 51,347.5C 50.9043,342.191 50.7377,336.858 50.5,331.5 Z"/></g>
<g><path style="opacity:0.933" fill="#000000" d="M 535.5,340.5 C 539.511,340.502 543.178,341.668 546.5,344C 550.548,347.716 554.882,351.05 559.5,354C 564.257,357.62 564.757,361.787 561,366.5C 558.558,370.941 555.392,374.774 551.5,378C 550.167,378.667 548.833,378.667 547.5,378C 540.599,370.428 533.099,363.595 525,357.5C 524.333,356.5 524.333,355.5 525,354.5C 529.102,350.239 532.602,345.572 535.5,340.5 Z"/></g>
<g><path style="opacity:1" fill="#745b60" d="M 84.5,334.5 C 80.7698,337.379 77.4364,340.713 74.5,344.5C 74.472,342.418 75.1387,340.584 76.5,339C 79.3637,337.587 82.0304,336.087 84.5,334.5 Z"/></g>
<g><path style="opacity:0.89" fill="#725c4d" d="M 184.5,342.5 C 183.857,345.198 183.024,347.865 182,350.5C 179.833,351.333 178.333,352.833 177.5,355C 175.753,355.352 174.086,355.852 172.5,356.5C 172.158,355.662 171.492,355.328 170.5,355.5C 172.761,354.41 174.594,352.744 176,350.5C 176.579,349.072 176.412,347.738 175.5,346.5C 177.943,345.891 179.61,344.391 180.5,342C 181.928,341.421 183.262,341.588 184.5,342.5 Z"/></g>
<g><path style="opacity:0.997" fill="#d8bbb2" d="M 87.5,338.5 C 87.8333,338.5 88.1667,338.5 88.5,338.5C 88.6495,339.552 88.4828,340.552 88,341.5C 84.842,343.957 82.0086,346.79 79.5,350C 75.7868,350.23 75.1201,351.397 77.5,353.5C 77.2907,354.086 76.9574,354.586 76.5,355C 73.1667,356.333 69.8333,357.667 66.5,359C 66.9574,359.414 67.2907,359.914 67.5,360.5C 65.2145,362.613 63.5478,365.113 62.5,368C 60.5048,368.613 58.8381,368.113 57.5,366.5C 57.8333,365.833 58.1667,365.167 58.5,364.5C 62.2257,364.988 64.559,363.154 65.5,359C 65.1667,358.667 64.8333,358.333 64.5,358C 65.9308,357.535 67.0975,356.701 68,355.5C 68.9594,353.047 70.126,350.714 71.5,348.5C 72.3382,348.158 72.6716,347.492 72.5,346.5C 73.1667,346.5 73.8333,346.5 74.5,346.5C 76.5841,345.752 78.5841,345.752 80.5,346.5C 81.4287,345.311 81.762,343.978 81.5,342.5C 84.3373,342.316 86.3373,340.982 87.5,338.5 Z"/></g>
<g><path style="opacity:0.992" fill="#f0e9df" d="M 88.5,338.5 C 89.1667,338.5 89.8333,338.5 90.5,338.5C 90.1549,341.374 88.6549,343.374 86,344.5C 85.6943,346.906 84.861,349.073 83.5,351C 83.7804,352.395 84.4471,353.562 85.5,354.5C 87.9585,353.081 90.6251,352.081 93.5,351.5C 92.4104,350.391 92.4104,349.391 93.5,348.5C 94.1667,349.833 94.8333,351.167 95.5,352.5C 97.467,351.316 99.1336,351.649 100.5,353.5C 98.9519,353.821 98.2852,354.821 98.5,356.5C 100.179,356.715 101.179,356.048 101.5,354.5C 102.8,357.024 102.8,359.691 101.5,362.5C 100.571,361.311 100.238,359.978 100.5,358.5C 93.3169,357.824 92.4836,358.824 98,361.5C 97.4997,365.82 99.333,368.154 103.5,368.5C 103.717,371.421 103.051,374.087 101.5,376.5C 100.272,375.694 99.2719,374.694 98.5,373.5C 96.3718,372.371 94.0385,372.204 91.5,373C 88.1652,377.876 84.4985,382.376 80.5,386.5C 79.8333,386.5 79.5,386.833 79.5,387.5C 78.6236,387.369 77.9569,387.702 77.5,388.5C 76.9495,390.657 76.2829,392.657 75.5,394.5C 71.4233,394.518 68.09,393.184 65.5,390.5C 64.391,390.443 63.391,390.11 62.5,389.5C 63.8725,387.65 63.3725,386.317 61,385.5C 60.5818,381.146 59.2485,377.146 57,373.5C 56.6174,374.056 56.1174,374.389 55.5,374.5C 56.1667,371.833 56.8333,369.167 57.5,366.5C 58.8381,368.113 60.5048,368.613 62.5,368C 63.5478,365.113 65.2145,362.613 67.5,360.5C 67.2907,359.914 66.9574,359.414 66.5,359C 69.8333,357.667 73.1667,356.333 76.5,355C 76.9574,354.586 77.2907,354.086 77.5,353.5C 75.1201,351.397 75.7868,350.23 79.5,350C 82.0086,346.79 84.842,343.957 88,341.5C 88.4828,340.552 88.6495,339.552 88.5,338.5 Z"/></g>
<g><path style="opacity:0.994" fill="#4f3625" d="M 159.5,344.5 C 160.167,344.833 160.833,345.167 161.5,345.5C 164.613,345.849 167.946,345.849 171.5,345.5C 173.099,345.232 174.432,345.566 175.5,346.5C 176.412,347.738 176.579,349.072 176,350.5C 174.594,352.744 172.761,354.41 170.5,355.5C 169.883,355.611 169.383,355.944 169,356.5C 168.667,355.167 168.333,353.833 168,352.5C 166.637,354.784 165.137,354.951 163.5,353C 164.167,352.667 164.833,352.333 165.5,352C 163.831,350.331 161.831,349.498 159.5,349.5C 159.5,349.167 159.5,348.833 159.5,348.5C 159.5,347.167 159.5,345.833 159.5,344.5 Z"/></g>
<g><path style="opacity:0.999" fill="#f4e5d1" d="M 138.5,347.5 C 141.537,349.497 142.537,352.163 141.5,355.5C 146.827,356.994 150.827,360.16 153.5,365C 153.07,366.434 152.236,367.601 151,368.5C 148.373,365.793 146.206,365.959 144.5,369C 147.842,370.997 148.176,373.33 145.5,376C 146.009,378.57 147.009,380.903 148.5,383C 147.906,383.464 147.239,383.631 146.5,383.5C 144.291,382.08 142.291,380.413 140.5,378.5C 137.697,372.381 133.363,371.047 127.5,374.5C 127.716,372.319 126.883,370.653 125,369.5C 124.233,365.442 124.4,361.442 125.5,357.5C 128.047,356.461 130.047,357.295 131.5,360C 135.218,362.298 139.218,362.965 143.5,362C 144.337,360.989 144.67,359.822 144.5,358.5C 143.167,358.5 141.833,358.5 140.5,358.5C 139.833,354.833 139.167,351.167 138.5,347.5 Z"/></g>
<g><path style="opacity:0.996" fill="#f5f1e9" d="M 128.5,326.5 C 128.472,328.582 129.139,330.416 130.5,332C 129.552,332.483 128.552,332.649 127.5,332.5C 127.952,337.227 126.285,341.06 122.5,344C 124.974,344.113 126.974,345.113 128.5,347C 130.387,347.78 132.054,347.613 133.5,346.5C 132.916,343.715 133.916,342.048 136.5,341.5C 136.989,342.995 137.655,344.329 138.5,345.5C 138.5,346.167 138.5,346.833 138.5,347.5C 139.167,351.167 139.833,354.833 140.5,358.5C 141.833,358.5 143.167,358.5 144.5,358.5C 144.67,359.822 144.337,360.989 143.5,362C 139.218,362.965 135.218,362.298 131.5,360C 130.047,357.295 128.047,356.461 125.5,357.5C 124.4,361.442 124.233,365.442 125,369.5C 126.883,370.653 127.716,372.319 127.5,374.5C 127.051,377.974 125.384,380.808 122.5,383C 123.167,383.333 123.833,383.667 124.5,384C 121.5,385.074 118.5,385.907 115.5,386.5C 114.833,386.5 114.167,386.5 113.5,386.5C 111.695,385.763 110.029,384.763 108.5,383.5C 107.549,384.326 106.549,384.492 105.5,384C 104.232,381.373 102.899,378.873 101.5,376.5C 103.051,374.087 103.717,371.421 103.5,368.5C 99.333,368.154 97.4997,365.82 98,361.5C 92.4836,358.824 93.3169,357.824 100.5,358.5C 100.238,359.978 100.571,361.311 101.5,362.5C 102.8,359.691 102.8,357.024 101.5,354.5C 101.5,353.833 101.167,353.5 100.5,353.5C 99.1336,351.649 97.467,351.316 95.5,352.5C 94.8333,351.167 94.1667,349.833 93.5,348.5C 92.4104,349.391 92.4104,350.391 93.5,351.5C 90.6251,352.081 87.9585,353.081 85.5,354.5C 84.4471,353.562 83.7804,352.395 83.5,351C 84.861,349.073 85.6943,346.906 86,344.5C 88.6549,343.374 90.1549,341.374 90.5,338.5C 92.9521,335.724 95.2854,332.724 97.5,329.5C 99.734,327.554 102.401,326.387 105.5,326C 113.195,325.309 120.861,325.475 128.5,326.5 Z"/></g>
<g><path style="opacity:0.997" fill="#e6dbd5" d="M 113.5,330.5 C 119.676,330.941 122.342,334.274 121.5,340.5C 118.289,341.355 115.122,342.355 112,343.5C 111.873,344.777 112.373,345.943 113.5,347C 112.815,349.795 112.315,352.628 112,355.5C 111.035,357.26 109.868,357.594 108.5,356.5C 109.074,354.941 109.74,353.441 110.5,352C 103.181,343.724 104.181,336.558 113.5,330.5 Z"/></g>
<g><path style="opacity:0.992" fill="#cc6f44" d="M 159.5,348.5 C 159.5,348.833 159.5,349.167 159.5,349.5C 159.631,350.239 159.464,350.906 159,351.5C 155.999,351.424 155.833,352.591 158.5,355C 159.833,355.333 161.167,355.667 162.5,356C 161.584,356.278 160.918,356.778 160.5,357.5C 155.615,357.616 153.615,355.283 154.5,350.5C 155.791,350.737 156.791,350.404 157.5,349.5C 157.409,347.302 158.075,346.969 159.5,348.5 Z"/></g>
<g><path style="opacity:0.86" fill="#766053" d="M 67.5,348.5 C 68.8333,348.5 70.1667,348.5 71.5,348.5C 70.126,350.714 68.9594,353.047 68,355.5C 67.0975,356.701 65.9308,357.535 64.5,358C 64.8333,358.333 65.1667,358.667 65.5,359C 64.559,363.154 62.2257,364.988 58.5,364.5C 59.8333,362.167 59.8333,359.833 58.5,357.5C 58.5,357.167 58.5,356.833 58.5,356.5C 59.1174,356.611 59.6174,356.944 60,357.5C 61.6795,353.667 64.1795,350.667 67.5,348.5 Z"/></g>
<g><path style="opacity:1" fill="#6f675d" d="M 100.5,353.5 C 101.167,353.5 101.5,353.833 101.5,354.5C 101.179,356.048 100.179,356.715 98.5,356.5C 98.2852,354.821 98.9519,353.821 100.5,353.5 Z"/></g>
<g><path style="opacity:0.235" fill="#78929a" d="M 47.5,355.5 C 51.1991,355.977 54.8658,356.31 58.5,356.5C 58.5,356.833 58.5,357.167 58.5,357.5C 55.1501,357.665 51.8168,357.498 48.5,357C 47.944,356.617 47.6107,356.117 47.5,355.5 Z"/></g>
<g><path style="opacity:0.761" fill="#ac6a4c" d="M 159.5,349.5 C 161.831,349.498 163.831,350.331 165.5,352C 164.833,352.333 164.167,352.667 163.5,353C 165.137,354.951 166.637,354.784 168,352.5C 168.333,353.833 168.667,355.167 169,356.5C 169.383,355.944 169.883,355.611 170.5,355.5C 171.492,355.328 172.158,355.662 172.5,356.5C 171.5,357.167 170.5,357.833 169.5,358.5C 169.167,358.5 168.833,358.5 168.5,358.5C 167.577,357.697 166.577,357.53 165.5,358C 164.601,359.652 163.601,361.152 162.5,362.5C 161.691,360.972 161.024,359.306 160.5,357.5C 160.918,356.778 161.584,356.278 162.5,356C 161.167,355.667 159.833,355.333 158.5,355C 155.833,352.591 155.999,351.424 159,351.5C 159.464,350.906 159.631,350.239 159.5,349.5 Z"/></g>
<g><path style="opacity:0.983" fill="#eaa36e" d="M 157.5,349.5 C 156.791,350.404 155.791,350.737 154.5,350.5C 153.615,355.283 155.615,357.616 160.5,357.5C 161.024,359.306 161.691,360.972 162.5,362.5C 161.438,364.234 161.438,365.901 162.5,367.5C 160.856,367.81 159.856,368.81 159.5,370.5C 157.926,372.102 157.259,374.102 157.5,376.5C 156.167,375.167 154.833,373.833 153.5,372.5C 153.5,371.5 153.5,370.5 153.5,369.5C 154.822,369.67 155.989,369.337 157,368.5C 157.667,365.833 157.667,363.167 157,360.5C 154.495,358.804 152.995,356.47 152.5,353.5C 151.015,354.433 149.682,354.1 148.5,352.5C 148.953,351.542 149.619,350.708 150.5,350C 152.81,349.503 155.143,349.337 157.5,349.5 Z"/></g>
<g><path style="opacity:0.931" fill="#99b3ae" d="M 168.5,358.5 C 168.833,358.5 169.167,358.5 169.5,358.5C 171.025,360.216 172.025,362.216 172.5,364.5C 170.623,364.9 169.123,365.9 168,367.5C 166.739,367.241 165.739,366.574 165,365.5C 165.066,362.7 166.233,360.367 168.5,358.5 Z"/></g>
<g><path style="opacity:0.996" fill="#f8f8f5" d="M 73.5,364.5 C 77.6225,364.798 81.6225,365.631 85.5,367C 84.376,367.249 83.376,367.749 82.5,368.5C 83.9209,371.428 82.9209,372.762 79.5,372.5C 79.3921,374.783 78.5588,376.783 77,378.5C 74.8762,379.622 73.0429,381.122 71.5,383C 68.854,383.497 66.1873,383.664 63.5,383.5C 62.7476,380.91 61.7476,378.41 60.5,376C 61.2529,374.123 62.0862,372.289 63,370.5C 66.9382,369.119 70.4382,367.119 73.5,364.5 Z"/></g>
<g><path style="opacity:0.994" fill="#bc4111" d="M 162.5,367.5 C 164.933,367.273 166.599,368.273 167.5,370.5C 167.045,373.857 165.212,376.19 162,377.5C 161.228,377.355 160.561,377.022 160,376.5C 159.505,374.527 159.338,372.527 159.5,370.5C 159.856,368.81 160.856,367.81 162.5,367.5 Z"/></g>
<g><path style="opacity:1" fill="#c7a980" d="M 168.5,358.5 C 166.233,360.367 165.066,362.7 165,365.5C 165.739,366.574 166.739,367.241 168,367.5C 169.123,365.9 170.623,364.9 172.5,364.5C 173.908,369.531 175.908,374.198 178.5,378.5C 174.759,377.599 172.759,378.932 172.5,382.5C 171.5,382.5 170.5,382.5 169.5,382.5C 169.629,384.216 169.962,385.883 170.5,387.5C 168.748,387.582 167.748,386.749 167.5,385C 166.897,381.822 167.564,378.822 169.5,376C 169.472,374.93 169.139,374.097 168.5,373.5C 168.443,372.391 168.11,371.391 167.5,370.5C 166.599,368.273 164.933,367.273 162.5,367.5C 161.438,365.901 161.438,364.234 162.5,362.5C 163.601,361.152 164.601,359.652 165.5,358C 166.577,357.53 167.577,357.697 168.5,358.5 Z"/></g>
<g><path style="opacity:1" fill="#414c56" d="M 98.5,373.5 C 93.2881,375.041 89.6214,378.375 87.5,383.5C 85.7713,385.727 83.438,386.727 80.5,386.5C 84.4985,382.376 88.1652,377.876 91.5,373C 94.0385,372.204 96.3718,372.371 98.5,373.5 Z"/></g>
<g><path style="opacity:0.998" fill="#25303c" d="M 140.5,378.5 C 140.5,379.5 140.5,380.5 140.5,381.5C 138.704,380.207 137.037,378.707 135.5,377C 133.236,376.764 131.069,376.264 129,375.5C 128.617,376.056 128.117,376.389 127.5,376.5C 127.5,375.833 127.5,375.167 127.5,374.5C 133.363,371.047 137.697,372.381 140.5,378.5 Z"/></g>
<g><path style="opacity:1" fill="#0e1015" d="M 98.5,373.5 C 99.2719,374.694 100.272,375.694 101.5,376.5C 101.167,379.833 100.833,383.167 100.5,386.5C 100.167,386.5 99.8333,386.5 99.5,386.5C 99.7373,385.209 99.404,384.209 98.5,383.5C 97.7615,379.131 95.4282,377.964 91.5,380C 97.1342,380.634 97.4675,381.134 92.5,381.5C 92.5875,384.598 92.0875,384.932 91,382.5C 90.3307,385.345 91.4973,387.012 94.5,387.5C 96.8418,387.775 96.8418,388.608 94.5,390C 88.6065,391.269 86.2732,389.103 87.5,383.5C 89.6214,378.375 93.2881,375.041 98.5,373.5 Z"/></g>
<g><path style="opacity:1" fill="#0d0e13" d="M 140.5,381.5 C 140.438,390.519 136.438,392.853 128.5,388.5C 128.5,387.833 128.167,387.5 127.5,387.5C 126.847,386.193 126.18,384.86 125.5,383.5C 127.171,381.49 127.838,379.157 127.5,376.5C 128.117,376.389 128.617,376.056 129,375.5C 131.069,376.264 133.236,376.764 135.5,377C 137.037,378.707 138.704,380.207 140.5,381.5 Z"/></g>
<g><path style="opacity:0.933" fill="#df6b29" d="M 159.5,370.5 C 159.338,372.527 159.505,374.527 160,376.5C 160.561,377.022 161.228,377.355 162,377.5C 165.212,376.19 167.045,373.857 167.5,370.5C 168.11,371.391 168.443,372.391 168.5,373.5C 168.249,375.17 167.582,376.67 166.5,378C 163.833,378.667 161.167,378.667 158.5,378C 157.944,377.617 157.611,377.117 157.5,376.5C 157.259,374.102 157.926,372.102 159.5,370.5 Z"/></g>
<g><path style="opacity:0.993" fill="#f2bc79" d="M 153.5,372.5 C 154.833,373.833 156.167,375.167 157.5,376.5C 157.611,377.117 157.944,377.617 158.5,378C 161.167,378.667 163.833,378.667 166.5,378C 167.582,376.67 168.249,375.17 168.5,373.5C 169.139,374.097 169.472,374.93 169.5,376C 167.564,378.822 166.897,381.822 167.5,385C 167.748,386.749 168.748,387.582 170.5,387.5C 170.5,387.833 170.5,388.167 170.5,388.5C 169.041,388.567 167.708,388.234 166.5,387.5C 165.914,385.16 164.914,382.993 163.5,381C 161.109,380.713 158.776,380.213 156.5,379.5C 155.5,380.167 154.5,380.833 153.5,381.5C 152.997,378.251 152.997,375.251 153.5,372.5 Z"/></g>
<g><path style="opacity:0.922" fill="#495058" d="M 98.5,383.5 C 98.5,384.5 98.5,385.5 98.5,386.5C 96.901,386.232 95.5676,386.566 94.5,387.5C 91.4973,387.012 90.3307,385.345 91,382.5C 92.0875,384.932 92.5875,384.598 92.5,381.5C 97.4675,381.134 97.1342,380.634 91.5,380C 95.4282,377.964 97.7615,379.131 98.5,383.5 Z"/></g>
<g><path style="opacity:1" fill="#cacecd" d="M 101.5,376.5 C 102.899,378.873 104.232,381.373 105.5,384C 106.549,384.492 107.549,384.326 108.5,383.5C 110.029,384.763 111.695,385.763 113.5,386.5C 111.781,387.022 110.448,388.022 109.5,389.5C 106.41,388.647 103.41,387.647 100.5,386.5C 100.833,383.167 101.167,379.833 101.5,376.5 Z"/></g>
<g><path style="opacity:0.947" fill="#acc4c1" d="M 62.5,389.5 C 59.1139,392.648 57.4473,396.648 57.5,401.5C 56.2058,400.71 55.0391,399.71 54,398.5C 53.6174,399.056 53.1174,399.389 52.5,399.5C 52.5,397.5 52.5,395.5 52.5,393.5C 50.9581,392.837 49.2914,392.17 47.5,391.5C 52.0919,390.332 53.0919,387.999 50.5,384.5C 53.0857,381.594 54.7523,378.26 55.5,374.5C 56.1174,374.389 56.6174,374.056 57,373.5C 59.2485,377.146 60.5818,381.146 61,385.5C 63.3725,386.317 63.8725,387.65 62.5,389.5 Z"/></g>
<g><path style="opacity:1" fill="#2c333f" d="M 87.5,383.5 C 86.2732,389.103 88.6065,391.269 94.5,390C 96.8418,388.608 96.8418,387.775 94.5,387.5C 95.5676,386.566 96.901,386.232 98.5,386.5C 98.5,385.5 98.5,384.5 98.5,383.5C 99.404,384.209 99.7373,385.209 99.5,386.5C 97.8193,389.203 96.1526,391.869 94.5,394.5C 89.8333,393.833 85.1667,393.167 80.5,392.5C 79.2995,398.601 81.6328,402.268 87.5,403.5C 86.7261,404.147 85.7261,404.48 84.5,404.5C 82.6455,404.66 81.3121,403.993 80.5,402.5C 80.1667,401.5 79.5,400.833 78.5,400.5C 78.6904,396.192 79.0237,391.859 79.5,387.5C 79.5,386.833 79.8333,386.5 80.5,386.5C 83.438,386.727 85.7713,385.727 87.5,383.5 Z"/></g>
<g><path style="opacity:1" fill="#373c43" d="M 132.5,379.5 C 136.893,379.457 137.226,379.957 133.5,381C 138.896,384.883 138.229,386.883 131.5,387C 129.842,386.275 129.342,385.108 130,383.5C 130.333,383.833 130.667,384.167 131,384.5C 131.492,383.451 131.326,382.451 130.5,381.5C 131.243,380.818 131.909,380.151 132.5,379.5 Z"/></g>
<g><path style="opacity:1" fill="#37424e" d="M 140.5,378.5 C 142.291,380.413 144.291,382.08 146.5,383.5C 146.5,384.167 146.5,384.833 146.5,385.5C 147.749,387.67 148.749,390.004 149.5,392.5C 149.253,393.713 148.586,394.38 147.5,394.5C 147.5,393.167 147.5,391.833 147.5,390.5C 144.743,390.378 142.743,391.545 141.5,394C 138.635,394.183 135.969,394.683 133.5,395.5C 132.091,393.028 130.424,390.695 128.5,388.5C 136.438,392.853 140.438,390.519 140.5,381.5C 140.5,380.5 140.5,379.5 140.5,378.5 Z"/></g>
<g><path style="opacity:0.999" fill="#f4e4d1" d="M 151.5,410.5 C 151.167,410.5 150.833,410.5 150.5,410.5C 149.177,408.314 147.177,406.814 144.5,406C 145.942,405.623 146.942,404.79 147.5,403.5C 148.83,399.848 150.497,396.348 152.5,393C 151.068,390.833 149.735,388.667 148.5,386.5C 153.862,384.184 158.862,384.517 163.5,387.5C 161.167,388.167 158.833,388.833 156.5,389.5C 157.325,390.386 158.325,390.719 159.5,390.5C 159.771,392.821 159.104,394.821 157.5,396.5C 157.833,397.167 158.167,397.833 158.5,398.5C 156.922,399.298 155.256,399.798 153.5,400C 154.357,400.689 155.023,401.522 155.5,402.5C 153.833,403.167 152.167,403.833 150.5,404.5C 152.174,406.43 152.507,408.43 151.5,410.5 Z"/></g>
<g><path style="opacity:1" fill="#f6f6f6" d="M 99.5,386.5 C 99.8333,386.5 100.167,386.5 100.5,386.5C 103.41,387.647 106.41,388.647 109.5,389.5C 110.167,389.833 110.833,390.167 111.5,390.5C 111.421,391.93 111.754,393.264 112.5,394.5C 110.903,395.791 109.57,397.291 108.5,399C 110.112,400.482 111.112,402.315 111.5,404.5C 110.127,404.343 108.793,404.51 107.5,405C 106.023,407.148 104.023,408.482 101.5,409C 100.748,409.671 100.414,410.504 100.5,411.5C 100.5,411.833 100.5,412.167 100.5,412.5C 99.596,413.209 99.2627,414.209 99.5,415.5C 97.8993,414.357 97.2326,415.024 97.5,417.5C 98.1822,419.841 98.8489,422.174 99.5,424.5C 98.1667,424.5 96.8333,424.5 95.5,424.5C 94.8333,424.5 94.1667,424.5 93.5,424.5C 93.573,422.973 92.9063,421.973 91.5,421.5C 88.6112,418.28 87.7779,414.613 89,410.5C 87.9887,409.663 86.8221,409.33 85.5,409.5C 85.5,408.5 85.5,407.5 85.5,406.5C 87.0764,405.857 88.4097,404.857 89.5,403.5C 91.9236,400.992 93.5903,397.992 94.5,394.5C 96.1526,391.869 97.8193,389.203 99.5,386.5 Z"/></g>
<g><path style="opacity:1" fill="#9aa7ac" d="M 113.5,386.5 C 114.167,386.5 114.833,386.5 115.5,386.5C 116.873,386.343 118.207,386.51 119.5,387C 118.62,388.356 118.286,389.856 118.5,391.5C 116.139,391.326 113.806,390.993 111.5,390.5C 110.833,390.167 110.167,389.833 109.5,389.5C 110.448,388.022 111.781,387.022 113.5,386.5 Z"/></g>
<g><path style="opacity:0.949" fill="#9ac1af" d="M 178.5,378.5 C 179.434,379.568 179.768,380.901 179.5,382.5C 178.011,384.116 177.011,386.116 176.5,388.5C 174.929,389.309 173.262,389.643 171.5,389.5C 171.5,388.833 171.167,388.5 170.5,388.5C 170.5,388.167 170.5,387.833 170.5,387.5C 169.962,385.883 169.629,384.216 169.5,382.5C 170.5,382.5 171.5,382.5 172.5,382.5C 172.759,378.932 174.759,377.599 178.5,378.5 Z"/></g>
<g><path style="opacity:1" fill="#f6f6f6" d="M 127.5,387.5 C 128.167,387.5 128.5,387.833 128.5,388.5C 130.424,390.695 132.091,393.028 133.5,395.5C 134.461,398.426 135.127,401.426 135.5,404.5C 136.29,405.794 137.29,406.961 138.5,408C 138.167,408.333 137.833,408.667 137.5,409C 138.823,409.816 139.489,410.983 139.5,412.5C 137.281,414.065 136.948,416.065 138.5,418.5C 136.918,420.015 135.584,421.681 134.5,423.5C 132.95,424.441 131.284,425.107 129.5,425.5C 128.503,425.53 127.836,425.03 127.5,424C 128.193,421.295 129.526,418.961 131.5,417C 129.953,416.667 128.62,417.167 127.5,418.5C 126.893,418.376 126.56,418.043 126.5,417.5C 127.301,415.958 127.634,414.292 127.5,412.5C 125.006,408.415 121.339,406.081 116.5,405.5C 117.735,403.227 117.402,401.394 115.5,400C 117.291,397.894 117.958,395.394 117.5,392.5C 120.205,392.62 120.872,391.62 119.5,389.5C 121.006,388.253 122.506,388.253 124,389.5C 124.71,388.027 125.876,387.36 127.5,387.5 Z"/></g>
<g><path style="opacity:0.956" fill="#a8a39f" d="M 79.5,387.5 C 79.0237,391.859 78.6904,396.192 78.5,400.5C 77.0292,398.784 76.0292,396.784 75.5,394.5C 76.2829,392.657 76.9495,390.657 77.5,388.5C 77.9569,387.702 78.6236,387.369 79.5,387.5 Z"/></g>
<g><path style="opacity:0.987" fill="#f7d8af" d="M 138.5,345.5 C 141.233,348.546 144.566,350.88 148.5,352.5C 149.682,354.1 151.015,354.433 152.5,353.5C 152.995,356.47 154.495,358.804 157,360.5C 157.667,363.167 157.667,365.833 157,368.5C 155.989,369.337 154.822,369.67 153.5,369.5C 153.5,370.5 153.5,371.5 153.5,372.5C 152.997,375.251 152.997,378.251 153.5,381.5C 154.5,380.833 155.5,380.167 156.5,379.5C 158.776,380.213 161.109,380.713 163.5,381C 164.914,382.993 165.914,385.16 166.5,387.5C 167.161,391.44 166.994,395.44 166,399.5C 164.301,400.406 162.467,400.739 160.5,400.5C 160.927,403.788 160.26,406.788 158.5,409.5C 158.833,410.167 159.167,410.833 159.5,411.5C 157.955,412.452 156.288,412.785 154.5,412.5C 154.167,412.5 153.833,412.5 153.5,412.5C 152.833,411.833 152.167,411.167 151.5,410.5C 152.507,408.43 152.174,406.43 150.5,404.5C 152.167,403.833 153.833,403.167 155.5,402.5C 155.023,401.522 154.357,400.689 153.5,400C 155.256,399.798 156.922,399.298 158.5,398.5C 158.167,397.833 157.833,397.167 157.5,396.5C 159.104,394.821 159.771,392.821 159.5,390.5C 158.325,390.719 157.325,390.386 156.5,389.5C 158.833,388.833 161.167,388.167 163.5,387.5C 158.862,384.517 153.862,384.184 148.5,386.5C 147.833,386.167 147.167,385.833 146.5,385.5C 146.5,384.833 146.5,384.167 146.5,383.5C 147.239,383.631 147.906,383.464 148.5,383C 147.009,380.903 146.009,378.57 145.5,376C 148.176,373.33 147.842,370.997 144.5,369C 146.206,365.959 148.373,365.793 151,368.5C 152.236,367.601 153.07,366.434 153.5,365C 150.827,360.16 146.827,356.994 141.5,355.5C 142.537,352.163 141.537,349.497 138.5,347.5C 138.5,346.833 138.5,346.167 138.5,345.5 Z"/></g>
<g><path style="opacity:1" fill="#1b2430" d="M 147.5,394.5 C 148.206,396.479 148.206,398.146 147.5,399.5C 146.292,400.234 144.959,400.567 143.5,400.5C 143.616,403.91 141.95,405.244 138.5,404.5C 137.5,404.5 136.5,404.5 135.5,404.5C 135.127,401.426 134.461,398.426 133.5,395.5C 135.969,394.683 138.635,394.183 141.5,394C 142.743,391.545 144.743,390.378 147.5,390.5C 147.5,391.833 147.5,393.167 147.5,394.5 Z"/></g>
<g><path style="opacity:1" fill="#0e1018" d="M 94.5,394.5 C 93.5903,397.992 91.9236,400.992 89.5,403.5C 88.8333,403.5 88.1667,403.5 87.5,403.5C 81.6328,402.268 79.2995,398.601 80.5,392.5C 85.1667,393.167 89.8333,393.833 94.5,394.5 Z"/></g>
<g><path style="opacity:0.937" fill="#d9decb" d="M 179.5,382.5 C 179.751,384.17 180.418,385.67 181.5,387C 179.675,388.466 179.175,390.299 180,392.5C 181.373,392.404 182.873,392.57 184.5,393C 185.727,391.413 185.394,390.079 183.5,389C 184.333,388.167 185.167,387.333 186,386.5C 187.483,389.323 188.983,392.157 190.5,395C 188.881,401.409 186.215,407.243 182.5,412.5C 182.5,412.167 182.5,411.833 182.5,411.5C 182.66,409.801 182.494,408.134 182,406.5C 181.23,405.402 180.397,405.402 179.5,406.5C 182.204,402.265 181.537,398.598 177.5,395.5C 177.631,394.761 177.464,394.094 177,393.5C 174.833,392.512 173,391.179 171.5,389.5C 173.262,389.643 174.929,389.309 176.5,388.5C 177.011,386.116 178.011,384.116 179.5,382.5 Z"/></g>
<g><path style="opacity:1" fill="#c2aa79" d="M 173.5,395.5 C 174.705,394.314 176.039,394.314 177.5,395.5C 181.537,398.598 182.204,402.265 179.5,406.5C 179.5,407.167 179.5,407.833 179.5,408.5C 178.833,408.5 178.167,408.5 177.5,408.5C 176.833,408.833 176.167,409.167 175.5,409.5C 175.34,406.116 175.673,402.783 176.5,399.5C 176.439,397.347 175.439,396.014 173.5,395.5 Z"/></g>
<g><path style="opacity:0.995" fill="#d1a693" d="M 65.5,390.5 C 68.09,393.184 71.4233,394.518 75.5,394.5C 76.0292,396.784 77.0292,398.784 78.5,400.5C 79.5,400.833 80.1667,401.5 80.5,402.5C 78.8297,402.751 77.3297,403.418 76,404.5C 75.1548,401.588 73.4882,400.588 71,401.5C 69.8777,399.58 69.0444,397.58 68.5,395.5C 67.5,395.5 66.5,395.5 65.5,395.5C 65.5,393.833 65.5,392.167 65.5,390.5 Z"/></g>
<g><path style="opacity:0.998" fill="#977342" d="M 173.5,395.5 C 175.439,396.014 176.439,397.347 176.5,399.5C 175.673,402.783 175.34,406.116 175.5,409.5C 174.833,409.167 174.167,408.833 173.5,408.5C 171.544,407.508 169.544,406.508 167.5,405.5C 169.511,402.14 171.511,398.807 173.5,395.5 Z"/></g>
<g><path style="opacity:1" fill="#94999b" d="M 146.5,385.5 C 147.167,385.833 147.833,386.167 148.5,386.5C 149.735,388.667 151.068,390.833 152.5,393C 150.497,396.348 148.83,399.848 147.5,403.5C 146.5,403.5 145.5,403.5 144.5,403.5C 145.23,401.955 146.563,401.122 148.5,401C 147.944,400.617 147.611,400.117 147.5,399.5C 148.206,398.146 148.206,396.479 147.5,394.5C 148.586,394.38 149.253,393.713 149.5,392.5C 148.749,390.004 147.749,387.67 146.5,385.5 Z"/></g>
<g><path style="opacity:0.886" fill="#556570" d="M 147.5,399.5 C 147.611,400.117 147.944,400.617 148.5,401C 146.563,401.122 145.23,401.955 144.5,403.5C 143.866,404.947 142.699,405.613 141,405.5C 139.93,405.472 139.097,405.139 138.5,404.5C 141.95,405.244 143.616,403.91 143.5,400.5C 144.959,400.567 146.292,400.234 147.5,399.5 Z"/></g>
<g><path style="opacity:0.992" fill="#f3c78e" d="M 166.5,387.5 C 167.708,388.234 169.041,388.567 170.5,388.5C 171.167,388.5 171.5,388.833 171.5,389.5C 173,391.179 174.833,392.512 177,393.5C 177.464,394.094 177.631,394.761 177.5,395.5C 176.039,394.314 174.705,394.314 173.5,395.5C 171.511,398.807 169.511,402.14 167.5,405.5C 167.5,406.167 167.5,406.833 167.5,407.5C 166.206,409.907 164.539,412.074 162.5,414C 160.343,414.078 158.343,414.245 156.5,414.5C 155.478,414.145 154.811,413.478 154.5,412.5C 156.288,412.785 157.955,412.452 159.5,411.5C 159.167,410.833 158.833,410.167 158.5,409.5C 160.26,406.788 160.927,403.788 160.5,400.5C 162.467,400.739 164.301,400.406 166,399.5C 166.994,395.44 167.161,391.44 166.5,387.5 Z"/></g>
<g><path style="opacity:1" fill="#69959d" d="M 57.5,401.5 C 57.5,403.5 57.5,405.5 57.5,407.5C 55.0118,406.588 53.3452,407.588 52.5,410.5C 52.5,411.5 52.5,412.5 52.5,413.5C 52.1667,413.5 51.8333,413.5 51.5,413.5C 50.3157,412.312 50.3157,411.145 51.5,410C 50.552,409.517 49.552,409.351 48.5,409.5C 48.8333,406.833 49.1667,404.167 49.5,401.5C 50.5,400.833 51.5,400.167 52.5,399.5C 53.1174,399.389 53.6174,399.056 54,398.5C 55.0391,399.71 56.2058,400.71 57.5,401.5 Z"/></g>
<g><path style="opacity:1" fill="#d5dadc" d="M 127.5,374.5 C 127.5,375.167 127.5,375.833 127.5,376.5C 127.838,379.157 127.171,381.49 125.5,383.5C 126.18,384.86 126.847,386.193 127.5,387.5C 125.876,387.36 124.71,388.027 124,389.5C 122.506,388.253 121.006,388.253 119.5,389.5C 120.872,391.62 120.205,392.62 117.5,392.5C 117.958,395.394 117.291,397.894 115.5,400C 117.402,401.394 117.735,403.227 116.5,405.5C 121.339,406.081 125.006,408.415 127.5,412.5C 125.965,413.354 124.632,413.354 123.5,412.5C 123.489,410.983 122.823,409.816 121.5,409C 117.876,406.352 113.876,405.352 109.5,406C 106.643,408.82 103.643,410.653 100.5,411.5C 100.414,410.504 100.748,409.671 101.5,409C 104.023,408.482 106.023,407.148 107.5,405C 108.793,404.51 110.127,404.343 111.5,404.5C 111.112,402.315 110.112,400.482 108.5,399C 109.57,397.291 110.903,395.791 112.5,394.5C 111.754,393.264 111.421,391.93 111.5,390.5C 113.806,390.993 116.139,391.326 118.5,391.5C 118.286,389.856 118.62,388.356 119.5,387C 118.207,386.51 116.873,386.343 115.5,386.5C 118.5,385.907 121.5,385.074 124.5,384C 123.833,383.667 123.167,383.333 122.5,383C 125.384,380.808 127.051,377.974 127.5,374.5 Z"/></g>
<g><path style="opacity:0.834" fill="#d0e1e2" d="M 52.5,393.5 C 52.5,395.5 52.5,397.5 52.5,399.5C 51.5,400.167 50.5,400.833 49.5,401.5C 48.2719,402.306 47.2719,403.306 46.5,404.5C 45.1667,405.167 45.1667,405.833 46.5,406.5C 46.9411,409.11 45.6078,410.776 42.5,411.5C 39.6465,410.809 37.1465,409.476 35,407.5C 34,408.167 33,408.833 32,409.5C 32.096,411.381 31.9293,413.047 31.5,414.5C 30.0532,413.866 29.3866,412.699 29.5,411C 30.4141,408.665 31.7474,406.498 33.5,404.5C 35.6439,403.047 37.4773,403.38 39,405.5C 40.7889,403.771 42.9556,403.104 45.5,403.5C 45.3398,401.801 45.5065,400.134 46,398.5C 48.7265,397.406 50.8932,395.74 52.5,393.5 Z"/></g>
<g><path style="opacity:0.995" fill="#c7aaa3" d="M 62.5,389.5 C 60.722,394.003 60.222,398.669 61,403.5C 61.8113,402.04 62.6446,401.707 63.5,402.5C 62.6171,403.548 61.9504,404.715 61.5,406C 63.4559,410.124 65.2892,414.29 67,418.5C 67.4966,420.81 67.6633,423.143 67.5,425.5C 66.5489,423.882 65.2156,422.549 63.5,421.5C 61.4659,416.774 59.4659,412.107 57.5,407.5C 57.5,405.5 57.5,403.5 57.5,401.5C 57.4473,396.648 59.1139,392.648 62.5,389.5 Z"/></g>
<g><path style="opacity:0.997" fill="#aeb8be" d="M 123.5,412.5 C 121.167,412.5 118.833,412.5 116.5,412.5C 114.833,412.5 113.167,412.5 111.5,412.5C 107.833,412.5 104.167,412.5 100.5,412.5C 100.5,412.167 100.5,411.833 100.5,411.5C 103.643,410.653 106.643,408.82 109.5,406C 113.876,405.352 117.876,406.352 121.5,409C 122.823,409.816 123.489,410.983 123.5,412.5 Z"/></g>
<g><path style="opacity:0.998" fill="#74491d" d="M 167.5,405.5 C 169.544,406.508 171.544,407.508 173.5,408.5C 173.5,409.167 173.5,409.833 173.5,410.5C 170.338,412.445 167.838,415.112 166,418.5C 164.097,420.441 163.264,422.774 163.5,425.5C 161.005,424.801 158.672,423.801 156.5,422.5C 156.328,421.508 156.662,420.842 157.5,420.5C 159.093,419.652 160.26,418.319 161,416.5C 162.873,417.089 164.54,416.422 166,414.5C 166.662,412.187 167.162,409.854 167.5,407.5C 167.5,406.833 167.5,406.167 167.5,405.5 Z"/></g>
<g><path style="opacity:1" fill="#818186" d="M 74.5,409.5 C 74.0334,412.297 72.3667,413.631 69.5,413.5C 67.9493,411.087 67.2826,408.421 67.5,405.5C 70.8573,405.216 73.1906,406.549 74.5,409.5 Z"/></g>
<g><path style="opacity:0.998" fill="#c56260" d="M 82.5,407.5 C 83.6253,409.129 84.9586,410.629 86.5,412C 84.0266,413.402 84.0266,414.902 86.5,416.5C 86.0431,417.298 85.3764,417.631 84.5,417.5C 83.1938,416.533 82.5271,415.199 82.5,413.5C 81.1667,413.5 79.8333,413.5 78.5,413.5C 78.2294,411.57 77.2294,410.236 75.5,409.5C 75.6107,408.883 75.944,408.383 76.5,408C 78.4727,407.505 80.4727,407.338 82.5,407.5 Z"/></g>
<g><path style="opacity:0.997" fill="#d2cfca" d="M 144.5,403.5 C 145.5,403.5 146.5,403.5 147.5,403.5C 146.942,404.79 145.942,405.623 144.5,406C 147.177,406.814 149.177,408.314 150.5,410.5C 146.498,410.036 142.831,410.702 139.5,412.5C 139.489,410.983 138.823,409.816 137.5,409C 137.833,408.667 138.167,408.333 138.5,408C 137.29,406.961 136.29,405.794 135.5,404.5C 136.5,404.5 137.5,404.5 138.5,404.5C 139.097,405.139 139.93,405.472 141,405.5C 142.699,405.613 143.866,404.947 144.5,403.5 Z"/></g>
<g><path style="opacity:1" fill="#0e0d11" d="M 57.5,407.5 C 59.4659,412.107 61.4659,416.774 63.5,421.5C 65.2156,422.549 66.5489,423.882 67.5,425.5C 70.5904,426.895 73.2571,428.895 75.5,431.5C 77.099,431.232 78.4324,431.566 79.5,432.5C 79.5,433.167 79.5,433.833 79.5,434.5C 79.0377,435.88 78.0377,436.547 76.5,436.5C 70.7254,435.748 65.0587,434.581 59.5,433C 58.1068,431.829 57.2735,430.329 57,428.5C 56.0522,422.23 54.5522,416.23 52.5,410.5C 53.3452,407.588 55.0118,406.588 57.5,407.5 Z"/></g>
<g><path style="opacity:0.994" fill="#bc766e" d="M 62.5,389.5 C 63.391,390.11 64.391,390.443 65.5,390.5C 65.5,392.167 65.5,393.833 65.5,395.5C 66.5,395.5 67.5,395.5 68.5,395.5C 69.0444,397.58 69.8777,399.58 71,401.5C 73.4882,400.588 75.1548,401.588 76,404.5C 77.3297,403.418 78.8297,402.751 80.5,402.5C 81.3121,403.993 82.6455,404.66 84.5,404.5C 85.7261,404.48 86.7261,404.147 87.5,403.5C 88.1667,403.5 88.8333,403.5 89.5,403.5C 88.4097,404.857 87.0764,405.857 85.5,406.5C 84.391,406.557 83.391,406.89 82.5,407.5C 80.4727,407.338 78.4727,407.505 76.5,408C 75.944,408.383 75.6107,408.883 75.5,409.5C 75.1667,409.5 74.8333,409.5 74.5,409.5C 73.1906,406.549 70.8573,405.216 67.5,405.5C 67.2826,408.421 67.9493,411.087 69.5,413.5C 71.2504,414.87 73.2504,415.87 75.5,416.5C 73.1873,419.02 71.854,422.02 71.5,425.5C 70.1667,425.5 68.8333,425.5 67.5,425.5C 67.6633,423.143 67.4966,420.81 67,418.5C 65.2892,414.29 63.4559,410.124 61.5,406C 61.9504,404.715 62.6171,403.548 63.5,402.5C 62.6446,401.707 61.8113,402.04 61,403.5C 60.222,398.669 60.722,394.003 62.5,389.5 Z"/></g>
<g><path style="opacity:1" fill="#76897f" d="M 173.5,408.5 C 174.167,408.833 174.833,409.167 175.5,409.5C 176.167,409.167 176.833,408.833 177.5,408.5C 177.433,409.959 177.766,411.292 178.5,412.5C 178.5,412.833 178.5,413.167 178.5,413.5C 177.167,413.167 175.833,412.833 174.5,412.5C 173.662,412.158 173.328,411.492 173.5,410.5C 173.5,409.833 173.5,409.167 173.5,408.5 Z"/></g>
<g><path style="opacity:0.996" fill="#3c4028" d="M 173.5,410.5 C 173.328,411.492 173.662,412.158 174.5,412.5C 172.23,415.367 169.73,418.033 167,420.5C 166.667,422.167 166.333,423.833 166,425.5C 165.583,426.756 164.75,427.423 163.5,427.5C 163.5,426.833 163.5,426.167 163.5,425.5C 163.264,422.774 164.097,420.441 166,418.5C 167.838,415.112 170.338,412.445 173.5,410.5 Z"/></g>
<g><path style="opacity:1" fill="#a48181" d="M 74.5,409.5 C 74.8333,409.5 75.1667,409.5 75.5,409.5C 77.2294,410.236 78.2294,411.57 78.5,413.5C 77.5987,414.29 76.9321,415.29 76.5,416.5C 76.1667,416.5 75.8333,416.5 75.5,416.5C 73.2504,415.87 71.2504,414.87 69.5,413.5C 72.3667,413.631 74.0334,412.297 74.5,409.5 Z"/></g>
<g><path style="opacity:0.988" fill="#b94a3c" d="M 78.5,413.5 C 79.8333,413.5 81.1667,413.5 82.5,413.5C 82.5271,415.199 83.1938,416.533 84.5,417.5C 85.1667,418.833 85.8333,420.167 86.5,421.5C 85.7901,425.361 83.4567,427.027 79.5,426.5C 77.5001,423.487 76.5001,420.154 76.5,416.5C 76.9321,415.29 77.5987,414.29 78.5,413.5 Z"/></g>
<g><path style="opacity:0.994" fill="#155864" d="M 174.5,412.5 C 175.833,412.833 177.167,413.167 178.5,413.5C 177.833,415.5 177.167,417.5 176.5,419.5C 170.421,421.033 167.754,425.033 168.5,431.5C 169.984,433.866 169.317,435.199 166.5,435.5C 165.5,435.167 164.833,434.5 164.5,433.5C 164.784,431.585 164.451,429.919 163.5,428.5C 163.5,428.167 163.5,427.833 163.5,427.5C 164.75,427.423 165.583,426.756 166,425.5C 166.333,423.833 166.667,422.167 167,420.5C 169.73,418.033 172.23,415.367 174.5,412.5 Z"/></g>
<g><path style="opacity:1" fill="#80bbc7" d="M 177.5,408.5 C 178.167,408.5 178.833,408.5 179.5,408.5C 180.5,409.5 181.5,410.5 182.5,411.5C 182.5,411.833 182.5,412.167 182.5,412.5C 182.125,414.698 181.458,416.698 180.5,418.5C 180.975,415.918 180.308,413.918 178.5,412.5C 177.766,411.292 177.433,409.959 177.5,408.5 Z"/></g>
<g><path style="opacity:0.992" fill="#da8942" d="M 167.5,407.5 C 167.162,409.854 166.662,412.187 166,414.5C 164.54,416.422 162.873,417.089 161,416.5C 160.26,418.319 159.093,419.652 157.5,420.5C 156.359,418.912 154.859,417.579 153,416.5C 152.235,414.934 152.402,413.601 153.5,412.5C 153.833,412.5 154.167,412.5 154.5,412.5C 154.811,413.478 155.478,414.145 156.5,414.5C 158.343,414.245 160.343,414.078 162.5,414C 164.539,412.074 166.206,409.907 167.5,407.5 Z"/></g>
<g><path style="opacity:1" fill="#deb3b4" d="M 85.5,406.5 C 85.5,407.5 85.5,408.5 85.5,409.5C 86.8221,409.33 87.9887,409.663 89,410.5C 87.7779,414.613 88.6112,418.28 91.5,421.5C 90.5,421.5 89.5,421.5 88.5,421.5C 87.8333,421.5 87.1667,421.5 86.5,421.5C 85.8333,420.167 85.1667,418.833 84.5,417.5C 85.3764,417.631 86.0431,417.298 86.5,416.5C 84.0266,414.902 84.0266,413.402 86.5,412C 84.9586,410.629 83.6253,409.129 82.5,407.5C 83.391,406.89 84.391,406.557 85.5,406.5 Z"/></g>
<g><path style="opacity:0.993" fill="#9b9a95" d="M 150.5,410.5 C 149.833,411.5 149.167,412.5 148.5,413.5C 146.143,413.337 143.81,413.503 141.5,414C 142.333,415.5 143.5,416.667 145,417.5C 145.034,419.18 145.201,420.68 145.5,422C 143.509,422.374 141.842,423.207 140.5,424.5C 140.265,425.097 139.765,425.43 139,425.5C 137.594,424.586 136.094,423.92 134.5,423.5C 135.584,421.681 136.918,420.015 138.5,418.5C 136.948,416.065 137.281,414.065 139.5,412.5C 142.831,410.702 146.498,410.036 150.5,410.5 Z"/></g>
<g><path style="opacity:1" fill="#da7d5e" d="M 75.5,416.5 C 75.8333,416.5 76.1667,416.5 76.5,416.5C 76.5001,420.154 77.5001,423.487 79.5,426.5C 79.0831,427.124 78.4164,427.457 77.5,427.5C 75.6663,426.246 73.6663,425.579 71.5,425.5C 71.854,422.02 73.1873,419.02 75.5,416.5 Z"/></g>
<g><path style="opacity:1" fill="#4c5e6b" d="M 108.5,420.5 C 105.911,420.539 103.911,419.539 102.5,417.5C 102.369,416.761 102.536,416.094 103,415.5C 104.753,416.627 106.587,417.627 108.5,418.5C 109.773,419.257 109.773,419.923 108.5,420.5 Z"/></g>
<g><path style="opacity:1" fill="#161b22" d="M 100.5,412.5 C 104.167,412.5 107.833,412.5 111.5,412.5C 107.338,414.7 107.671,416.033 112.5,416.5C 112.5,415.5 112.5,414.5 112.5,413.5C 114.099,413.768 115.432,413.434 116.5,412.5C 118.833,412.5 121.167,412.5 123.5,412.5C 124.632,413.354 125.965,413.354 127.5,412.5C 127.634,414.292 127.301,415.958 126.5,417.5C 126.167,417.5 125.833,417.5 125.5,417.5C 123.302,416.933 120.969,416.933 118.5,417.5C 118.567,418.959 118.234,420.292 117.5,421.5C 115.97,422.211 114.637,423.211 113.5,424.5C 112.833,423.167 111.833,422.167 110.5,421.5C 109.508,421.672 108.842,421.338 108.5,420.5C 109.773,419.923 109.773,419.257 108.5,418.5C 106.587,417.627 104.753,416.627 103,415.5C 102.536,416.094 102.369,416.761 102.5,417.5C 101.778,416.449 100.778,415.782 99.5,415.5C 99.2627,414.209 99.596,413.209 100.5,412.5 Z"/></g>
<g><path style="opacity:0.89" fill="#3c4d5b" d="M 117.5,413.5 C 118.675,413.281 119.675,413.614 120.5,414.5C 118.171,415.998 116.337,417.998 115,420.5C 114.505,418.527 114.338,416.527 114.5,414.5C 115.791,414.737 116.791,414.404 117.5,413.5 Z"/></g>
<g><path style="opacity:0.949" fill="#65727c" d="M 111.5,412.5 C 113.167,412.5 114.833,412.5 116.5,412.5C 115.432,413.434 114.099,413.768 112.5,413.5C 112.5,414.5 112.5,415.5 112.5,416.5C 107.671,416.033 107.338,414.7 111.5,412.5 Z"/></g>
<g><path style="opacity:0.91" fill="#57636d" d="M 125.5,417.5 C 124.694,418.728 123.694,419.728 122.5,420.5C 120.784,420.629 119.117,420.962 117.5,421.5C 118.234,420.292 118.567,418.959 118.5,417.5C 120.969,416.933 123.302,416.933 125.5,417.5 Z"/></g>
<g><path style="opacity:0.995" fill="#8198a3" d="M 122.5,420.5 C 127.067,420.274 127.4,421.774 123.5,425C 120.429,426.239 117.429,426.739 114.5,426.5C 113.833,426.5 113.167,426.5 112.5,426.5C 112.833,425.833 113.167,425.167 113.5,424.5C 114.637,423.211 115.97,422.211 117.5,421.5C 119.117,420.962 120.784,420.629 122.5,420.5 Z"/></g>
<g><path style="opacity:1" fill="#b17d59" d="M 150.5,410.5 C 150.833,410.5 151.167,410.5 151.5,410.5C 152.167,411.167 152.833,411.833 153.5,412.5C 152.402,413.601 152.235,414.934 153,416.5C 154.859,417.579 156.359,418.912 157.5,420.5C 156.662,420.842 156.328,421.508 156.5,422.5C 155.4,423.605 154.733,424.938 154.5,426.5C 153.415,428.587 151.749,429.92 149.5,430.5C 148.883,430.389 148.383,430.056 148,429.5C 147.064,425.886 146.564,422.22 146.5,418.5C 147.5,418.5 148.5,418.5 149.5,418.5C 149.634,416.708 149.301,415.042 148.5,413.5C 149.167,412.5 149.833,411.5 150.5,410.5 Z"/></g>
<g><path style="opacity:1" fill="#c1cbd0" d="M 99.5,415.5 C 100.778,415.782 101.778,416.449 102.5,417.5C 103.911,419.539 105.911,420.539 108.5,420.5C 108.842,421.338 109.508,421.672 110.5,421.5C 107.933,422.22 105.266,421.886 102.5,420.5C 101.479,421.002 101.312,421.668 102,422.5C 105.361,425.672 109.195,426.338 113.5,424.5C 113.167,425.167 112.833,425.833 112.5,426.5C 108.22,427.54 103.887,427.706 99.5,427C 97.6803,426.8 96.347,425.966 95.5,424.5C 96.8333,424.5 98.1667,424.5 99.5,424.5C 98.8489,422.174 98.1822,419.841 97.5,417.5C 97.2326,415.024 97.8993,414.357 99.5,415.5 Z"/></g>
<g><path style="opacity:1" fill="#617c8b" d="M 110.5,421.5 C 111.833,422.167 112.833,423.167 113.5,424.5C 109.195,426.338 105.361,425.672 102,422.5C 101.312,421.668 101.479,421.002 102.5,420.5C 105.266,421.886 107.933,422.22 110.5,421.5 Z"/></g>
<g><path style="opacity:0.997" fill="#766458" d="M 148.5,413.5 C 149.301,415.042 149.634,416.708 149.5,418.5C 148.5,418.5 147.5,418.5 146.5,418.5C 146.564,422.22 147.064,425.886 148,429.5C 148.383,430.056 148.883,430.389 149.5,430.5C 148.448,432.256 146.781,432.923 144.5,432.5C 143.713,430.896 142.38,430.229 140.5,430.5C 140.48,428.857 141.147,427.524 142.5,426.5C 142.145,425.478 141.478,424.811 140.5,424.5C 141.842,423.207 143.509,422.374 145.5,422C 145.201,420.68 145.034,419.18 145,417.5C 143.5,416.667 142.333,415.5 141.5,414C 143.81,413.503 146.143,413.337 148.5,413.5 Z"/></g>
<g><path style="opacity:0.992" fill="#3e2a10" d="M 156.5,422.5 C 158.672,423.801 161.005,424.801 163.5,425.5C 163.5,426.167 163.5,426.833 163.5,427.5C 163.5,427.833 163.5,428.167 163.5,428.5C 161.833,428.5 160.167,428.5 158.5,428.5C 158.371,430.216 158.038,431.883 157.5,433.5C 156.833,433.5 156.5,433.833 156.5,434.5C 155.272,435.306 154.272,436.306 153.5,437.5C 150.366,438.241 147.366,439.241 144.5,440.5C 148.309,437.61 151.809,434.277 155,430.5C 155.765,428.934 155.598,427.601 154.5,426.5C 154.733,424.938 155.4,423.605 156.5,422.5 Z"/></g>
<g><path style="opacity:0.982" fill="#2c5a77" d="M 51.5,413.5 C 51.8333,413.5 52.1667,413.5 52.5,413.5C 53.5767,416.526 53.5767,419.526 52.5,422.5C 52.9222,426.71 53.9222,430.71 55.5,434.5C 55.1373,435.183 54.8039,435.85 54.5,436.5C 54.1667,436.5 53.8333,436.5 53.5,436.5C 53.5,435.167 52.8333,434.5 51.5,434.5C 51.6495,433.448 51.4828,432.448 51,431.5C 50.6667,431.833 50.3333,432.167 50,432.5C 49.0531,428.204 46.5531,425.537 42.5,424.5C 42.5,423.167 42.5,421.833 42.5,420.5C 45.1873,420.664 47.854,420.497 50.5,420C 51.2524,419.329 51.5858,418.496 51.5,417.5C 51.5,416.167 51.5,414.833 51.5,413.5 Z"/></g>
<g><path style="opacity:1" fill="#147f9f" d="M 178.5,412.5 C 180.308,413.918 180.975,415.918 180.5,418.5C 181.11,419.391 181.443,420.391 181.5,421.5C 181.664,424.187 181.497,426.854 181,429.5C 179.795,430.071 178.628,430.738 177.5,431.5C 178.668,432.906 178.335,434.072 176.5,435C 174,435.375 171.667,436.208 169.5,437.5C 168.261,437.058 167.261,436.391 166.5,435.5C 169.317,435.199 169.984,433.866 168.5,431.5C 167.754,425.033 170.421,421.033 176.5,419.5C 177.167,417.5 177.833,415.5 178.5,413.5C 178.5,413.167 178.5,412.833 178.5,412.5 Z"/></g>
<g><path style="opacity:0.997" fill="#5789a3" d="M 51.5,417.5 C 51.5858,418.496 51.2524,419.329 50.5,420C 47.854,420.497 45.1873,420.664 42.5,420.5C 42.5,421.833 42.5,423.167 42.5,424.5C 46.5531,425.537 49.0531,428.204 50,432.5C 50.3333,432.167 50.6667,431.833 51,431.5C 51.4828,432.448 51.6495,433.448 51.5,434.5C 49.2546,433.904 47.2546,432.904 45.5,431.5C 43.1591,431.992 41.1591,433.159 39.5,435C 38.1667,435.167 36.8333,435.333 35.5,435.5C 31.8751,433.779 28.2085,431.945 24.5,430C 26.6234,428.806 28.9568,428.14 31.5,428C 34.046,424.391 37.3793,423.557 41.5,425.5C 39.6828,421.416 40.1828,417.749 43,414.5C 44.1882,415.563 44.6882,416.897 44.5,418.5C 46.9496,418.702 49.283,418.369 51.5,417.5 Z"/></g>
<g><path style="opacity:0.978" fill="#d0d8da" d="M 129.5,425.5 C 128.167,426.167 126.833,426.833 125.5,427.5C 121.532,429.112 117.866,428.779 114.5,426.5C 117.429,426.739 120.429,426.239 123.5,425C 127.4,421.774 127.067,420.274 122.5,420.5C 123.694,419.728 124.694,418.728 125.5,417.5C 125.833,417.5 126.167,417.5 126.5,417.5C 126.56,418.043 126.893,418.376 127.5,418.5C 128.62,417.167 129.953,416.667 131.5,417C 129.526,418.961 128.193,421.295 127.5,424C 127.836,425.03 128.503,425.53 129.5,425.5 Z"/></g>
<g><path style="opacity:1" fill="#555f67" d="M 134.5,423.5 C 136.094,423.92 137.594,424.586 139,425.5C 139.765,425.43 140.265,425.097 140.5,424.5C 141.478,424.811 142.145,425.478 142.5,426.5C 141.147,427.524 140.48,428.857 140.5,430.5C 142.38,430.229 143.713,430.896 144.5,432.5C 141.545,432.468 138.545,432.802 135.5,433.5C 135.047,432.542 134.381,431.708 133.5,431C 134.624,430.751 135.624,430.251 136.5,429.5C 135.286,427.246 133.619,426.913 131.5,428.5C 129.621,427.659 127.621,427.325 125.5,427.5C 126.833,426.833 128.167,426.167 129.5,425.5C 131.284,425.107 132.95,424.441 134.5,423.5 Z"/></g>
<g><path style="opacity:1" fill="#9b615a" d="M 86.5,421.5 C 87.1667,421.5 87.8333,421.5 88.5,421.5C 88.9175,422.222 89.5842,422.722 90.5,423C 86.5443,424.114 86.5443,424.947 90.5,425.5C 90.6287,427.216 90.962,428.883 91.5,430.5C 90.5943,431.965 89.261,432.965 87.5,433.5C 83.9377,429.181 79.9377,428.514 75.5,431.5C 73.2571,428.895 70.5904,426.895 67.5,425.5C 68.8333,425.5 70.1667,425.5 71.5,425.5C 73.6663,425.579 75.6663,426.246 77.5,427.5C 78.4164,427.457 79.0831,427.124 79.5,426.5C 83.4567,427.027 85.7901,425.361 86.5,421.5 Z"/></g>
<g><path style="opacity:1" fill="#374147" d="M 93.5,424.5 C 94.1667,424.5 94.8333,424.5 95.5,424.5C 96.347,425.966 97.6803,426.8 99.5,427C 103.887,427.706 108.22,427.54 112.5,426.5C 113.167,426.5 113.833,426.5 114.5,426.5C 117.866,428.779 121.532,429.112 125.5,427.5C 124.1,428.1 123.1,429.1 122.5,430.5C 121.833,430.5 121.167,430.5 120.5,430.5C 116.132,430.63 111.798,430.297 107.5,429.5C 104.29,430.944 100.957,431.444 97.5,431C 95.2663,429.362 93.933,427.195 93.5,424.5 Z"/></g>
<g><path style="opacity:1" fill="#0f1115" d="M 125.5,427.5 C 127.621,427.325 129.621,427.659 131.5,428.5C 129.384,433.055 126.384,433.722 122.5,430.5C 123.1,429.1 124.1,428.1 125.5,427.5 Z"/></g>
<g><path style="opacity:1" fill="#74868f" d="M 135.5,433.5 C 134.178,433.67 133.011,433.337 132,432.5C 130.451,435.362 128.118,437.362 125,438.5C 123.545,439.58 122.045,439.58 120.5,438.5C 123.278,437.645 125.945,436.312 128.5,434.5C 125.694,433.832 123.028,433.166 120.5,432.5C 120.5,431.833 120.5,431.167 120.5,430.5C 121.167,430.5 121.833,430.5 122.5,430.5C 126.384,433.722 129.384,433.055 131.5,428.5C 133.619,426.913 135.286,427.246 136.5,429.5C 135.624,430.251 134.624,430.751 133.5,431C 134.381,431.708 135.047,432.542 135.5,433.5 Z"/></g>
<g><path style="opacity:0.999" fill="#aeb8bb" d="M 88.5,421.5 C 89.5,421.5 90.5,421.5 91.5,421.5C 92.9063,421.973 93.573,422.973 93.5,424.5C 93.933,427.195 95.2663,429.362 97.5,431C 100.957,431.444 104.29,430.944 107.5,429.5C 111.798,430.297 116.132,430.63 120.5,430.5C 120.5,431.167 120.5,431.833 120.5,432.5C 114.225,432.67 108.058,432.67 102,432.5C 100.566,432.93 99.3992,433.764 98.5,435C 105.091,438.066 112.091,439.233 119.5,438.5C 118.738,440.262 117.404,441.262 115.5,441.5C 113.012,439.612 110.012,438.945 106.5,439.5C 103.753,439.933 101.087,439.266 98.5,437.5C 96.3311,435.66 94.9977,433.326 94.5,430.5C 93.5,430.5 92.5,430.5 91.5,430.5C 90.962,428.883 90.6287,427.216 90.5,425.5C 86.5443,424.947 86.5443,424.114 90.5,423C 89.5842,422.722 88.9175,422.222 88.5,421.5 Z"/></g>
<g><path style="opacity:0.969" fill="#3e684e" d="M 163.5,428.5 C 164.451,429.919 164.784,431.585 164.5,433.5C 163.041,433.567 161.708,433.234 160.5,432.5C 159.391,432.557 158.391,432.89 157.5,433.5C 158.038,431.883 158.371,430.216 158.5,428.5C 160.167,428.5 161.833,428.5 163.5,428.5 Z"/></g>
<g><path style="opacity:1" fill="#5b6067" d="M 91.5,430.5 C 92.5,430.5 93.5,430.5 94.5,430.5C 94.9977,433.326 96.3311,435.66 98.5,437.5C 98.5,438.167 98.1667,438.5 97.5,438.5C 91.437,436.701 85.437,434.701 79.5,432.5C 78.4324,431.566 77.099,431.232 75.5,431.5C 79.9377,428.514 83.9377,429.181 87.5,433.5C 89.261,432.965 90.5943,431.965 91.5,430.5 Z"/></g>
<g><path style="opacity:1" fill="#ecedeb" d="M 120.5,432.5 C 123.028,433.166 125.694,433.832 128.5,434.5C 125.945,436.312 123.278,437.645 120.5,438.5C 120.167,438.5 119.833,438.5 119.5,438.5C 112.091,439.233 105.091,438.066 98.5,435C 99.3992,433.764 100.566,432.93 102,432.5C 108.058,432.67 114.225,432.67 120.5,432.5 Z"/></g>
<g><path style="opacity:1" fill="#171519" d="M 154.5,426.5 C 155.598,427.601 155.765,428.934 155,430.5C 151.809,434.277 148.309,437.61 144.5,440.5C 140.396,441.873 137.062,444.206 134.5,447.5C 133.065,449.401 131.398,449.734 129.5,448.5C 129.631,447.624 129.298,446.957 128.5,446.5C 127.305,448.297 125.638,449.297 123.5,449.5C 123.335,446.482 123.502,443.482 124,440.5C 128.118,438.529 131.952,436.196 135.5,433.5C 138.545,432.802 141.545,432.468 144.5,432.5C 146.781,432.923 148.448,432.256 149.5,430.5C 151.749,429.92 153.415,428.587 154.5,426.5 Z"/></g>
<g><path style="opacity:1" fill="#0e1b2c" d="M 52.5,410.5 C 54.5522,416.23 56.0522,422.23 57,428.5C 57.2735,430.329 58.1068,431.829 59.5,433C 65.0587,434.581 70.7254,435.748 76.5,436.5C 78.0377,436.547 79.0377,435.88 79.5,434.5C 80.1667,434.5 80.5,434.833 80.5,435.5C 79.7205,438.553 77.7205,440.22 74.5,440.5C 73.2807,439.737 72.2807,438.737 71.5,437.5C 70.6143,438.325 70.281,439.325 70.5,440.5C 68.5853,440.784 66.9187,440.451 65.5,439.5C 66.7733,438.923 66.7733,438.257 65.5,437.5C 64.7025,437.957 64.3691,438.624 64.5,439.5C 64.1667,439.5 63.8333,439.5 63.5,439.5C 61.9008,440.562 60.2341,440.562 58.5,439.5C 56.7697,438.974 55.4363,437.974 54.5,436.5C 54.8039,435.85 55.1373,435.183 55.5,434.5C 53.9222,430.71 52.9222,426.71 52.5,422.5C 53.5767,419.526 53.5767,416.526 52.5,413.5C 52.5,412.5 52.5,411.5 52.5,410.5 Z"/></g>
<g><path style="opacity:1" fill="#7ebfc0" d="M 181.5,421.5 C 182.434,422.772 183.101,424.272 183.5,426C 182.056,430.27 180.389,434.437 178.5,438.5C 173.601,439.01 168.934,440.343 164.5,442.5C 163.201,441.91 162.368,440.91 162,439.5C 161.292,440.381 160.458,441.047 159.5,441.5C 159.586,440.504 159.252,439.671 158.5,439C 160.016,437.103 160.683,434.936 160.5,432.5C 161.708,433.234 163.041,433.567 164.5,433.5C 164.833,434.5 165.5,435.167 166.5,435.5C 167.261,436.391 168.261,437.058 169.5,437.5C 171.667,436.208 174,435.375 176.5,435C 178.335,434.072 178.668,432.906 177.5,431.5C 178.628,430.738 179.795,430.071 181,429.5C 181.497,426.854 181.664,424.187 181.5,421.5 Z"/></g>
<g><path style="opacity:0.995" fill="#91a681" d="M 160.5,432.5 C 160.683,434.936 160.016,437.103 158.5,439C 159.252,439.671 159.586,440.504 159.5,441.5C 159.5,442.833 159.5,444.167 159.5,445.5C 158.167,446.167 157.167,447.167 156.5,448.5C 155.501,443.995 155.501,439.328 156.5,434.5C 156.5,433.833 156.833,433.5 157.5,433.5C 158.391,432.89 159.391,432.557 160.5,432.5 Z"/></g>
<g><path style="opacity:0.975" fill="#a4692e" d="M 65.5,439.5 C 65.1667,439.5 64.8333,439.5 64.5,439.5C 64.3691,438.624 64.7025,437.957 65.5,437.5C 66.7733,438.257 66.7733,438.923 65.5,439.5 Z"/></g>
<g><path style="opacity:0.989" fill="#0e425f" d="M 79.5,432.5 C 85.437,434.701 91.437,436.701 97.5,438.5C 98.8755,442.698 99.5421,447.031 99.5,451.5C 100.5,451.5 101.5,451.5 102.5,451.5C 104.403,451.796 106.07,452.463 107.5,453.5C 105.879,453.787 104.879,454.787 104.5,456.5C 102.955,457.452 101.288,457.785 99.5,457.5C 99.67,456.178 99.3366,455.011 98.5,454C 95.3388,452.587 92.3388,450.92 89.5,449C 87.8659,448.506 86.1992,448.34 84.5,448.5C 84.791,444.722 86.1243,441.388 88.5,438.5C 86.0293,436.929 83.3626,435.929 80.5,435.5C 80.5,434.833 80.1667,434.5 79.5,434.5C 79.5,433.833 79.5,433.167 79.5,432.5 Z"/></g>
<g><path style="opacity:1" fill="#7cacc1" d="M 45.5,431.5 C 47.2546,432.904 49.2546,433.904 51.5,434.5C 52.8333,434.5 53.5,435.167 53.5,436.5C 52.2392,439.099 50.5725,441.432 48.5,443.5C 48.8036,445.441 49.6369,447.107 51,448.5C 51.8525,446.875 52.8525,446.542 54,447.5C 54.7401,448.749 54.5735,449.749 53.5,450.5C 47.8174,451.354 45.1507,449.02 45.5,443.5C 44.5,443.5 43.5,443.5 42.5,443.5C 42.5,441.833 42.5,440.167 42.5,438.5C 46.548,437.738 47.548,435.404 45.5,431.5 Z"/></g>
<g><path style="opacity:0.994" fill="#222e36" d="M 135.5,433.5 C 131.952,436.196 128.118,438.529 124,440.5C 123.502,443.482 123.335,446.482 123.5,449.5C 125.638,449.297 127.305,448.297 128.5,446.5C 129.298,446.957 129.631,447.624 129.5,448.5C 129.167,448.5 128.833,448.5 128.5,448.5C 127.549,450.118 126.216,451.451 124.5,452.5C 122.995,449.869 122.329,450.203 122.5,453.5C 119.37,453.3 116.37,452.634 113.5,451.5C 116.061,449.906 119.061,448.906 122.5,448.5C 121.77,445.891 121.27,443.224 121,440.5C 119.837,442.285 119.17,444.285 119,446.5C 118.667,445.833 118.333,445.167 118,444.5C 116.615,445.551 115.615,446.884 115,448.5C 114.423,443.874 112.423,442.874 109,445.5C 108.529,447.246 107.862,448.913 107,450.5C 106.846,447.768 107.346,445.102 108.5,442.5C 108.167,442.167 107.833,441.833 107.5,441.5C 106.702,443.078 106.202,444.744 106,446.5C 105.667,445.167 105.333,443.833 105,442.5C 103.817,441.269 102.651,441.269 101.5,442.5C 101.454,445.485 101.787,448.485 102.5,451.5C 101.5,451.5 100.5,451.5 99.5,451.5C 99.5421,447.031 98.8755,442.698 97.5,438.5C 98.1667,438.5 98.5,438.167 98.5,437.5C 101.087,439.266 103.753,439.933 106.5,439.5C 109.171,441.118 112.171,441.785 115.5,441.5C 117.404,441.262 118.738,440.262 119.5,438.5C 119.833,438.5 120.167,438.5 120.5,438.5C 122.045,439.58 123.545,439.58 125,438.5C 128.118,437.362 130.451,435.362 132,432.5C 133.011,433.337 134.178,433.67 135.5,433.5 Z"/></g>
<g><path style="opacity:0.878" fill="#6b7275" d="M 106.5,439.5 C 110.012,438.945 113.012,439.612 115.5,441.5C 112.171,441.785 109.171,441.118 106.5,439.5 Z"/></g>
<g><path style="opacity:0.997" fill="#7e5d2e" d="M 153.5,437.5 C 154.232,442.114 153.232,446.114 150.5,449.5C 149.962,447.883 149.629,446.216 149.5,444.5C 147.409,444.682 145.409,444.348 143.5,443.5C 140.592,445.122 137.592,446.456 134.5,447.5C 137.062,444.206 140.396,441.873 144.5,440.5C 147.366,439.241 150.366,438.241 153.5,437.5 Z"/></g>
<g><path style="opacity:0.99" fill="#082949" d="M 80.5,435.5 C 83.3626,435.929 86.0293,436.929 88.5,438.5C 86.1243,441.388 84.791,444.722 84.5,448.5C 84.5,448.833 84.5,449.167 84.5,449.5C 83.8333,449.5 83.5,449.833 83.5,450.5C 80.8239,451.008 78.1572,451.175 75.5,451C 74.1667,448.333 72.8333,445.667 71.5,443C 69.5,442.667 67.5,442.333 65.5,442C 64.6195,441.292 63.9528,440.458 63.5,439.5C 63.8333,439.5 64.1667,439.5 64.5,439.5C 64.8333,439.5 65.1667,439.5 65.5,439.5C 66.9187,440.451 68.5853,440.784 70.5,440.5C 70.281,439.325 70.6143,438.325 71.5,437.5C 72.2807,438.737 73.2807,439.737 74.5,440.5C 77.7205,440.22 79.7205,438.553 80.5,435.5 Z"/></g>
<g><path style="opacity:0.991" fill="#0a1016" d="M 113.5,451.5 C 113.5,452.167 113.5,452.833 113.5,453.5C 113.167,453.5 112.833,453.5 112.5,453.5C 110.833,453.5 109.167,453.5 107.5,453.5C 106.07,452.463 104.403,451.796 102.5,451.5C 101.787,448.485 101.454,445.485 101.5,442.5C 102.651,441.269 103.817,441.269 105,442.5C 105.333,443.833 105.667,445.167 106,446.5C 106.202,444.744 106.702,443.078 107.5,441.5C 107.833,441.833 108.167,442.167 108.5,442.5C 107.346,445.102 106.846,447.768 107,450.5C 107.862,448.913 108.529,447.246 109,445.5C 112.423,442.874 114.423,443.874 115,448.5C 115.615,446.884 116.615,445.551 118,444.5C 118.333,445.167 118.667,445.833 119,446.5C 119.17,444.285 119.837,442.285 121,440.5C 121.27,443.224 121.77,445.891 122.5,448.5C 119.061,448.906 116.061,449.906 113.5,451.5 Z"/></g>
<g><path style="opacity:0.997" fill="#958c59" d="M 156.5,434.5 C 155.501,439.328 155.501,443.995 156.5,448.5C 156.244,452.783 154.244,454.117 150.5,452.5C 150.167,452.5 149.833,452.5 149.5,452.5C 149.5,451.833 149.5,451.167 149.5,450.5C 150.167,450.5 150.5,450.167 150.5,449.5C 153.232,446.114 154.232,442.114 153.5,437.5C 154.272,436.306 155.272,435.306 156.5,434.5 Z"/></g>
<g><path style="opacity:1" fill="#164d71" d="M 58.5,439.5 C 60.2341,440.562 61.9008,440.562 63.5,439.5C 63.9528,440.458 64.6195,441.292 65.5,442C 67.5,442.333 69.5,442.667 71.5,443C 72.8333,445.667 74.1667,448.333 75.5,451C 78.1572,451.175 80.8239,451.008 83.5,450.5C 83.5,451.167 83.5,451.833 83.5,452.5C 81.2776,452.178 79.4443,452.845 78,454.5C 75.7678,453.157 73.9345,451.49 72.5,449.5C 70.6096,449.703 69.1096,449.037 68,447.5C 66.2996,452.123 64.133,452.457 61.5,448.5C 62.8312,446.177 62.4979,444.177 60.5,442.5C 59.8333,441.5 59.1667,440.5 58.5,439.5 Z"/></g>
<g><path style="opacity:0.995" fill="#af6d2b" d="M 150.5,449.5 C 150.5,450.167 150.167,450.5 149.5,450.5C 149.167,450.5 148.833,450.5 148.5,450.5C 147.766,449.292 147.433,447.959 147.5,446.5C 141.997,444.585 138.33,446.418 136.5,452C 137.381,452.708 138.047,453.542 138.5,454.5C 135.904,453.735 133.237,453.401 130.5,453.5C 132.374,451.885 133.708,449.885 134.5,447.5C 137.592,446.456 140.592,445.122 143.5,443.5C 145.409,444.348 147.409,444.682 149.5,444.5C 149.629,446.216 149.962,447.883 150.5,449.5 Z"/></g>
<g><path style="opacity:0.999" fill="#d4741a" d="M 148.5,450.5 C 147.5,450.5 146.5,450.5 145.5,450.5C 146.014,452.512 146.18,454.512 146,456.5C 144.698,457.085 143.531,457.751 142.5,458.5C 141.833,458.5 141.167,458.5 140.5,458.5C 140.611,457.883 140.944,457.383 141.5,457C 140.058,456.623 139.058,455.79 138.5,454.5C 138.047,453.542 137.381,452.708 136.5,452C 138.33,446.418 141.997,444.585 147.5,446.5C 147.433,447.959 147.766,449.292 148.5,450.5 Z"/></g>
<g><path style="opacity:1" fill="#2d6a8d" d="M 60.5,442.5 C 62.4979,444.177 62.8312,446.177 61.5,448.5C 64.133,452.457 66.2996,452.123 68,447.5C 69.1096,449.037 70.6096,449.703 72.5,449.5C 72.0133,450.473 71.5133,451.473 71,452.5C 70,451.167 69,451.167 68,452.5C 67.6667,454.167 67.3333,455.833 67,457.5C 62.3573,453.873 59.524,449.206 58.5,443.5C 58.9569,442.702 59.6236,442.369 60.5,442.5 Z"/></g>
<g><path style="opacity:0.998" fill="#1e4541" d="M 128.5,448.5 C 128.5,449.833 128.5,451.167 128.5,452.5C 126.708,454.461 124.542,455.795 122,456.5C 119.337,455.089 116.504,454.089 113.5,453.5C 113.5,452.833 113.5,452.167 113.5,451.5C 116.37,452.634 119.37,453.3 122.5,453.5C 122.329,450.203 122.995,449.869 124.5,452.5C 126.216,451.451 127.549,450.118 128.5,448.5 Z"/></g>
<g><path style="opacity:1" fill="#7b6939" d="M 134.5,447.5 C 133.708,449.885 132.374,451.885 130.5,453.5C 130.5,453.833 130.5,454.167 130.5,454.5C 129.833,454.5 129.167,454.5 128.5,454.5C 128.5,453.833 128.5,453.167 128.5,452.5C 128.5,451.167 128.5,449.833 128.5,448.5C 128.833,448.5 129.167,448.5 129.5,448.5C 131.398,449.734 133.065,449.401 134.5,447.5 Z"/></g>
<g><path style="opacity:0.993" fill="#e3994a" d="M 148.5,450.5 C 148.833,450.5 149.167,450.5 149.5,450.5C 149.5,451.167 149.5,451.833 149.5,452.5C 149.973,457.023 147.973,459.357 143.5,459.5C 142.833,459.5 142.5,459.167 142.5,458.5C 143.531,457.751 144.698,457.085 146,456.5C 146.18,454.512 146.014,452.512 145.5,450.5C 146.5,450.5 147.5,450.5 148.5,450.5 Z"/></g>
<g><path style="opacity:0.998" fill="#558caa" d="M 53.5,436.5 C 53.8333,436.5 54.1667,436.5 54.5,436.5C 55.4363,437.974 56.7697,438.974 58.5,439.5C 59.1667,440.5 59.8333,441.5 60.5,442.5C 59.6236,442.369 58.9569,442.702 58.5,443.5C 59.524,449.206 62.3573,453.873 67,457.5C 67.3333,455.833 67.6667,454.167 68,452.5C 69,451.167 70,451.167 71,452.5C 71.5133,451.473 72.0133,450.473 72.5,449.5C 73.9345,451.49 75.7678,453.157 78,454.5C 79.4443,452.845 81.2776,452.178 83.5,452.5C 83.5,453.5 83.5,454.5 83.5,455.5C 80.9512,455.441 78.9512,456.441 77.5,458.5C 76.2807,457.737 75.2807,456.737 74.5,455.5C 73.913,456.233 73.913,457.233 74.5,458.5C 73.8333,458.5 73.5,458.833 73.5,459.5C 72.5041,459.414 71.6708,459.748 71,460.5C 70.2599,466.218 70.4265,471.885 71.5,477.5C 71.8174,480.572 71.4841,483.572 70.5,486.5C 69.5091,482.555 69.1758,478.555 69.5,474.5C 69.6657,470.154 69.499,465.821 69,461.5C 68.6667,461.167 68.3333,460.833 68,460.5C 67.5172,461.448 67.3505,462.448 67.5,463.5C 60.4347,463.22 56.9347,459.554 57,452.5C 53.6122,454.26 52.4456,453.593 53.5,450.5C 54.5735,449.749 54.7401,448.749 54,447.5C 52.8525,446.542 51.8525,446.875 51,448.5C 49.6369,447.107 48.8036,445.441 48.5,443.5C 50.5725,441.432 52.2392,439.099 53.5,436.5 Z"/></g>
<g><path style="opacity:0.899" fill="#a2c5d0" d="M 49.5,401.5 C 49.1667,404.167 48.8333,406.833 48.5,409.5C 49.552,409.351 50.552,409.517 51.5,410C 50.3157,411.145 50.3157,412.312 51.5,413.5C 51.5,414.833 51.5,416.167 51.5,417.5C 49.283,418.369 46.9496,418.702 44.5,418.5C 44.6882,416.897 44.1882,415.563 43,414.5C 40.1828,417.749 39.6828,421.416 41.5,425.5C 37.3793,423.557 34.046,424.391 31.5,428C 28.9568,428.14 26.6234,428.806 24.5,430C 28.2085,431.945 31.8751,433.779 35.5,435.5C 36.8333,435.333 38.1667,435.167 39.5,435C 41.1591,433.159 43.1591,431.992 45.5,431.5C 47.548,435.404 46.548,437.738 42.5,438.5C 42.5,440.167 42.5,441.833 42.5,443.5C 43.5,443.5 44.5,443.5 45.5,443.5C 45.1507,449.02 47.8174,451.354 53.5,450.5C 52.4456,453.593 53.6122,454.26 57,452.5C 56.9347,459.554 60.4347,463.22 67.5,463.5C 67.3505,462.448 67.5172,461.448 68,460.5C 68.3333,460.833 68.6667,461.167 69,461.5C 69.499,465.821 69.6657,470.154 69.5,474.5C 67.2254,473.889 65.5588,472.555 64.5,470.5C 63.4647,468.795 63.4647,467.128 64.5,465.5C 64.1543,464.304 63.6543,464.304 63,465.5C 62.5012,469.486 62.3345,473.486 62.5,477.5C 61.7677,478.808 60.9344,480.142 60,481.5C 58.7964,477.284 58.1298,472.951 58,468.5C 57.5291,466.754 56.8624,465.087 56,463.5C 50.3414,460.994 45.1747,457.66 40.5,453.5C 39.2052,449.62 39.2052,445.786 40.5,442C 37.6118,438.848 33.9451,437.348 29.5,437.5C 29.6495,436.448 29.4828,435.448 29,434.5C 26.2846,433.783 24.1179,432.283 22.5,430C 22.9884,428.416 23.9884,427.249 25.5,426.5C 29.1728,425.33 32.5061,423.664 35.5,421.5C 32.9703,420.868 30.637,419.868 28.5,418.5C 29.7161,417.904 31.0494,417.737 32.5,418C 31.6634,416.989 31.33,415.822 31.5,414.5C 31.9293,413.047 32.096,411.381 32,409.5C 33,408.833 34,408.167 35,407.5C 37.1465,409.476 39.6465,410.809 42.5,411.5C 45.6078,410.776 46.9411,409.11 46.5,406.5C 46.5,405.833 46.5,405.167 46.5,404.5C 47.2719,403.306 48.2719,402.306 49.5,401.5 Z"/></g>
<g><path style="opacity:1" fill="#0b6081" d="M 84.5,449.5 C 84.5,449.167 84.5,448.833 84.5,448.5C 86.1992,448.34 87.8659,448.506 89.5,449C 92.3388,450.92 95.3388,452.587 98.5,454C 99.3366,455.011 99.67,456.178 99.5,457.5C 101.288,457.785 102.955,457.452 104.5,456.5C 104.879,454.787 105.879,453.787 107.5,453.5C 109.167,453.5 110.833,453.5 112.5,453.5C 112.167,454.5 111.5,455.167 110.5,455.5C 107.815,457.245 104.815,458.245 101.5,458.5C 99.8333,458.333 98.1667,458.167 96.5,458C 94.1658,452.985 90.1658,450.152 84.5,449.5 Z"/></g>
<g><path style="opacity:1" fill="#5bbace" d="M 104.5,464.5 C 103.737,465.268 102.737,465.768 101.5,466C 102.094,466.464 102.761,466.631 103.5,466.5C 105.088,469.106 104.255,470.44 101,470.5C 98.2671,468.572 97.1005,469.239 97.5,472.5C 96.8333,472.5 96.1667,472.5 95.5,472.5C 96.5213,469.773 95.5213,467.773 92.5,466.5C 90.9755,468.483 89.9755,470.816 89.5,473.5C 88.0052,474.705 86.6719,474.705 85.5,473.5C 86.6942,471.516 86.6942,469.516 85.5,467.5C 81.4655,466.805 77.4655,466.472 73.5,466.5C 73.838,464.345 73.838,462.011 73.5,459.5C 73.5,458.833 73.8333,458.5 74.5,458.5C 76.6243,460.059 78.291,462.059 79.5,464.5C 79.2597,461.797 79.7597,459.13 81,456.5C 82.7184,458.202 82.885,460.035 81.5,462C 82.7932,462.49 84.1266,462.657 85.5,462.5C 85.5567,460.116 85.2234,457.782 84.5,455.5C 84.4528,454 85.1195,453 86.5,452.5C 90.0364,454.711 93.0364,457.545 95.5,461C 98.5212,462.18 101.521,463.346 104.5,464.5 Z"/></g>
<g><path style="opacity:0.971" fill="#518771" d="M 128.5,452.5 C 128.5,453.167 128.5,453.833 128.5,454.5C 126.668,456.656 124.334,457.99 121.5,458.5C 117.757,454.635 114.09,454.635 110.5,458.5C 109.833,458.5 109.167,458.5 108.5,458.5C 109.167,457.5 109.833,456.5 110.5,455.5C 111.5,455.167 112.167,454.5 112.5,453.5C 112.833,453.5 113.167,453.5 113.5,453.5C 116.504,454.089 119.337,455.089 122,456.5C 124.542,455.795 126.708,454.461 128.5,452.5 Z"/></g>
<g><path style="opacity:0.996" fill="#edcb9a" d="M 130.5,453.5 C 133.237,453.401 135.904,453.735 138.5,454.5C 139.058,455.79 140.058,456.623 141.5,457C 140.944,457.383 140.611,457.883 140.5,458.5C 140.5,459.167 140.167,459.5 139.5,459.5C 136.167,458.5 132.833,457.5 129.5,456.5C 129.833,455.833 130.167,455.167 130.5,454.5C 130.5,454.167 130.5,453.833 130.5,453.5 Z"/></g>
<g><path style="opacity:0.598" fill="#e2decb" d="M 159.5,445.5 C 158.862,447.46 158.862,449.293 159.5,451C 158.696,452.771 157.529,454.271 156,455.5C 155.502,462.833 154.169,463.166 152,456.5C 151.617,457.056 151.117,457.389 150.5,457.5C 150.5,455.833 150.5,454.167 150.5,452.5C 154.244,454.117 156.244,452.783 156.5,448.5C 157.167,447.167 158.167,446.167 159.5,445.5 Z"/></g>
<g><path style="opacity:0.998" fill="#1d8ba7" d="M 84.5,449.5 C 90.1658,450.152 94.1658,452.985 96.5,458C 98.1667,458.167 99.8333,458.333 101.5,458.5C 104.815,458.245 107.815,457.245 110.5,455.5C 109.833,456.5 109.167,457.5 108.5,458.5C 107.312,459.364 106.145,460.364 105,461.5C 105.109,462.769 104.942,463.769 104.5,464.5C 101.521,463.346 98.5212,462.18 95.5,461C 93.0364,457.545 90.0364,454.711 86.5,452.5C 85.1195,453 84.4528,454 84.5,455.5C 85.2234,457.782 85.5567,460.116 85.5,462.5C 84.1266,462.657 82.7932,462.49 81.5,462C 82.885,460.035 82.7184,458.202 81,456.5C 79.7597,459.13 79.2597,461.797 79.5,464.5C 78.291,462.059 76.6243,460.059 74.5,458.5C 73.913,457.233 73.913,456.233 74.5,455.5C 75.2807,456.737 76.2807,457.737 77.5,458.5C 78.9512,456.441 80.9512,455.441 83.5,455.5C 83.5,454.5 83.5,453.5 83.5,452.5C 83.5,451.833 83.5,451.167 83.5,450.5C 83.5,449.833 83.8333,449.5 84.5,449.5 Z"/></g>
<g><path style="opacity:1" fill="#4b9868" d="M 108.5,458.5 C 109.167,458.5 109.833,458.5 110.5,458.5C 110.5,458.833 110.5,459.167 110.5,459.5C 109.172,461.793 107.839,464.127 106.5,466.5C 105.5,466.5 104.5,466.5 103.5,466.5C 102.761,466.631 102.094,466.464 101.5,466C 102.737,465.768 103.737,465.268 104.5,464.5C 104.942,463.769 105.109,462.769 105,461.5C 106.145,460.364 107.312,459.364 108.5,458.5 Z"/></g>
<g><path style="opacity:0.722" fill="#f1c699" d="M 149.5,452.5 C 149.833,452.5 150.167,452.5 150.5,452.5C 150.5,454.167 150.5,455.833 150.5,457.5C 150.5,458.5 150.5,459.5 150.5,460.5C 148.958,461.301 147.292,461.634 145.5,461.5C 144.778,461.918 144.278,462.584 144,463.5C 143.51,462.207 143.343,460.873 143.5,459.5C 147.973,459.357 149.973,457.023 149.5,452.5 Z"/></g>
<g><path style="opacity:1" fill="#b0cfaf" d="M 128.5,454.5 C 129.167,454.5 129.833,454.5 130.5,454.5C 130.167,455.167 129.833,455.833 129.5,456.5C 128.662,456.842 128.328,457.508 128.5,458.5C 126.827,459.343 125.66,460.676 125,462.5C 124.819,465.695 124.319,468.695 123.5,471.5C 123.167,470.833 122.833,470.167 122.5,469.5C 122.011,466.676 120.344,465.343 117.5,465.5C 111.747,467.304 110.081,465.304 112.5,459.5C 112.03,458.537 111.363,458.537 110.5,459.5C 110.5,459.167 110.5,458.833 110.5,458.5C 114.09,454.635 117.757,454.635 121.5,458.5C 124.334,457.99 126.668,456.656 128.5,454.5 Z"/></g>
<g><path style="opacity:0.666" fill="#f3e5c6" d="M 129.5,456.5 C 132.833,457.5 136.167,458.5 139.5,459.5C 139.702,461.989 139.202,464.323 138,466.5C 136.98,465.109 136.147,463.609 135.5,462C 133.548,461.634 131.882,460.801 130.5,459.5C 130.158,458.662 129.492,458.328 128.5,458.5C 128.328,457.508 128.662,456.842 129.5,456.5 Z"/></g>
<g><path style="opacity:0.647" fill="#faebd9" d="M 150.5,460.5 C 150.133,464.067 149.133,467.4 147.5,470.5C 146.692,470.192 146.025,469.692 145.5,469C 145.892,466.646 145.892,464.146 145.5,461.5C 147.292,461.634 148.958,461.301 150.5,460.5 Z"/></g>
<g><path style="opacity:0.729" fill="#7a8d97" d="M 64.5,470.5 C 64.8789,475.297 64.3789,479.964 63,484.5C 62.5034,482.19 62.3367,479.857 62.5,477.5C 62.3345,473.486 62.5012,469.486 63,465.5C 63.6543,464.304 64.1543,464.304 64.5,465.5C 63.4647,467.128 63.4647,468.795 64.5,470.5 Z"/></g>
<g><path style="opacity:0.997" fill="#65c58d" d="M 117.5,465.5 C 115.557,468.945 112.557,470.945 108.5,471.5C 108.88,469.302 108.213,467.635 106.5,466.5C 107.839,464.127 109.172,461.793 110.5,459.5C 111.363,458.537 112.03,458.537 112.5,459.5C 110.081,465.304 111.747,467.304 117.5,465.5 Z"/></g>
<g><path style="opacity:0.988" fill="#8bc1d2" d="M 73.5,459.5 C 73.838,462.011 73.838,464.345 73.5,466.5C 77.4655,466.472 81.4655,466.805 85.5,467.5C 86.6942,469.516 86.6942,471.516 85.5,473.5C 83.5722,472.464 81.5722,471.964 79.5,472C 78.5562,474.719 78.2229,477.552 78.5,480.5C 78.8841,482.665 78.2174,484.332 76.5,485.5C 76.6035,482.816 75.9369,480.15 74.5,477.5C 73.5,477.5 72.5,477.5 71.5,477.5C 70.4265,471.885 70.2599,466.218 71,460.5C 71.6708,459.748 72.5041,459.414 73.5,459.5 Z"/></g>
<g><path style="opacity:0.997" fill="#98e2e0" d="M 122.5,469.5 C 122.833,470.167 123.167,470.833 123.5,471.5C 123.631,472.239 123.464,472.906 123,473.5C 120.819,475.264 118.652,476.931 116.5,478.5C 114.94,477.393 113.44,477.393 112,478.5C 109.852,477.27 107.686,476.27 105.5,475.5C 107.734,475.38 109.901,475.713 112,476.5C 114.628,472.775 118.128,470.442 122.5,469.5 Z"/></g>
<g><path style="opacity:0.781" fill="#afd9e2" d="M 95.5,472.5 C 92.3492,474.583 89.3492,476.916 86.5,479.5C 85.914,479.291 85.414,478.957 85,478.5C 84.7104,480.044 84.0437,481.377 83,482.5C 82.6667,480.5 82.3333,478.5 82,476.5C 81.0513,478.093 79.8846,479.426 78.5,480.5C 78.2229,477.552 78.5562,474.719 79.5,472C 81.5722,471.964 83.5722,472.464 85.5,473.5C 86.6719,474.705 88.0052,474.705 89.5,473.5C 89.9755,470.816 90.9755,468.483 92.5,466.5C 95.5213,467.773 96.5213,469.773 95.5,472.5 Z"/></g>
<g><path style="opacity:1" fill="#5fd0c1" d="M 117.5,465.5 C 120.344,465.343 122.011,466.676 122.5,469.5C 118.128,470.442 114.628,472.775 112,476.5C 109.901,475.713 107.734,475.38 105.5,475.5C 103.245,473.62 100.578,472.62 97.5,472.5C 97.1005,469.239 98.2671,468.572 101,470.5C 104.255,470.44 105.088,469.106 103.5,466.5C 104.5,466.5 105.5,466.5 106.5,466.5C 108.213,467.635 108.88,469.302 108.5,471.5C 112.557,470.945 115.557,468.945 117.5,465.5 Z"/></g>
<g><path style="opacity:0.807" fill="#c5ebe7" d="M 128.5,458.5 C 129.492,458.328 130.158,458.662 130.5,459.5C 128.522,460.144 127.189,461.478 126.5,463.5C 127.185,468.112 127.185,472.779 126.5,477.5C 123.105,478.941 119.605,480.274 116,481.5C 108.834,480.165 102.667,477.165 97.5,472.5C 100.578,472.62 103.245,473.62 105.5,475.5C 107.686,476.27 109.852,477.27 112,478.5C 113.44,477.393 114.94,477.393 116.5,478.5C 118.652,476.931 120.819,475.264 123,473.5C 123.464,472.906 123.631,472.239 123.5,471.5C 124.319,468.695 124.819,465.695 125,462.5C 125.66,460.676 126.827,459.343 128.5,458.5 Z"/></g>
</svg>
